<?xml version="1.0" encoding="UTF-8"?>
<svg width="26.991" height="30.835" version="1.1" viewBox="0 0 26.991 30.835" xml:space="preserve" xmlns="http://www.w3.org/2000/svg"><g transform="matrix(1.3333 0 0 -1.3333 -72.613 58.751)"><g transform="translate(70.609 33.112)"><path d="m0 0c0.457 1.123 0.135 2.241 0.265 3.447-0.6-0.295-1.09-0.552-1.594-0.777-0.27-0.119-0.375-0.276-0.366-0.579 0.022-0.799 6e-3 -1.599 9e-3 -2.399 0-0.129 0.026-0.259 0.04-0.389l0.112-0.098c0.284 0.75 0.755 1.107 1.534 0.795m-7.561 9.191c0.103-0.081 0.158-0.138 0.225-0.174 2.611-1.397 5.223-2.793 7.838-4.184 0.09-0.048 0.231-0.094 0.31-0.057 0.551 0.263 1.092 0.548 1.747 0.881-2.869 1.424-5.604 2.785-8.346 4.134-0.136 0.066-0.348 0.074-0.486 0.017-0.428-0.176-0.836-0.397-1.288-0.617m-3.125-1.572c0.112-0.082 0.147-0.116 0.188-0.136 2.697-1.368 5.394-2.734 8.095-4.098 0.092-0.047 0.231-0.104 0.307-0.068 0.57 0.27 1.129 0.562 1.704 0.853-0.066 0.084-0.08 0.118-0.104 0.13-2.66 1.402-5.319 2.805-7.985 4.195-0.118 0.062-0.318 0.055-0.442-2e-3 -0.578-0.267-1.142-0.563-1.763-0.874m7.424-4.885c-0.226 0.127-0.358 0.207-0.495 0.277-2.458 1.24-4.925 2.465-7.369 3.733-0.496 0.257-0.882 0.289-1.364-3e-3 -0.647-0.392-1.338-0.709-2.095-1.101 2.854-1.436 5.597-2.819 8.345-4.194 0.099-0.05 0.26-0.078 0.35-0.033 0.856 0.417 1.703 0.852 2.628 1.321m6.352 2.128c-0.541-0.265-1.015-0.521-1.508-0.731-0.296-0.127-0.393-0.296-0.389-0.618 0.012-0.995 0.106-2.011-0.059-2.979-0.208-1.217-0.498-1.599-1.627-1.428-0.024-0.038-0.052-0.076-0.073-0.118-0.356-0.675-0.636-0.778-1.663-0.554-0.599 0.129-0.369 0.635-0.382 0.992-0.033 0.823-0.011 1.648-0.011 2.583-0.909-0.459-1.684-0.872-2.479-1.239-0.338-0.157-0.459-0.343-0.457-0.723 0.016-3.194 7e-3 -6.389 5e-3 -9.583v-1.335c0.136 0.052 0.211 0.072 0.278 0.108 2.71 1.487 5.421 2.971 8.121 4.477 0.144 0.081 0.263 0.347 0.264 0.528 0.017 3.355 0.014 6.71 0.013 10.065 0 0.154-0.018 0.308-0.033 0.555m-18.25 0.032c-9e-3 -0.151-0.018-0.229-0.018-0.307 0-3.306 5e-3 -6.612-9e-3 -9.918-1e-3 -0.295 0.13-0.423 0.348-0.553 2.021-1.208 4.037-2.423 6.057-3.633 0.735-0.44 1.474-0.874 2.222-1.317 0.031 0.087 0.049 0.115 0.049 0.144 6e-3 3.658 0.013 7.317 3e-3 10.976 0 0.129-0.145 0.306-0.27 0.378-0.444 0.254-0.908 0.474-1.366 0.704-2.316 1.164-4.633 2.328-7.016 3.526m9.232-17.069h-0.192c-3.002 1.801-6.002 3.608-9.009 5.401-0.564 0.337-1.115 0.651-0.973 1.45 0.01 0.057-0.026 0.122-0.04 0.183v10.118c-0.075 0.862 0.502 1.19 1.165 1.51 1.641 0.794 3.261 1.633 4.888 2.455 1.323 0.668 2.646 1.339 3.969 2.009h0.192c0.107-0.064 0.21-0.135 0.321-0.191 2.929-1.473 5.856-2.954 8.795-4.409 0.522-0.259 0.928-0.538 0.906-1.182v-10.021c-0.019-0.447-0.064-0.896-0.048-1.341 0.012-0.332-0.09-0.538-0.388-0.691-0.47-0.241-0.919-0.522-1.382-0.777-2.734-1.506-5.469-3.01-8.204-4.514" fill="#fff"/></g><g transform="translate(61.19 28.505)"><path d="m0 0c0-0.721-0.01-1.442 4e-3 -2.164 6e-3 -0.327-0.129-0.556-0.443-0.57-0.324-0.015-0.473 0.213-0.471 0.539 5e-3 0.656 2e-3 1.314 2e-3 2.043-0.177-0.076-0.279-0.137-0.39-0.163-0.352-0.082-0.681 0.256-0.508 0.567 0.31 0.558 0.664 1.096 1.061 1.594 0.083 0.104 0.541 0.089 0.641-0.029 0.515-0.61 0.988-1.26 1.431-1.926 0.086-0.129 0.042-0.476-0.068-0.566-0.115-0.093-0.438-0.068-0.574 0.033-0.233 0.172-0.393 0.445-0.583 0.676-0.035-0.012-0.068-0.023-0.102-0.034" fill="#fff"/></g></g></svg>
