<?xml version="1.0" encoding="UTF-8"?>
<svg width="27.34" height="25.333" version="1.1" viewBox="0 0 27.34 25.333" xml:space="preserve" xmlns="http://www.w3.org/2000/svg"><g transform="matrix(1.3333 0 0 -1.3333 38.906 56)"><g transform="translate(-29.18 32.463)"><path d="m0 0c0.207 0.225 0.413 0.468 0.766 0.333 0.38-0.145 0.419-0.472 0.418-0.826-5e-3 -1.699-7e-3 -3.4-1e-3 -5.099 6e-3 -1.571 1.13-2.695 2.695-2.695 4.249-3e-3 8.499-3e-3 12.749 0 1.559 0 2.689 1.131 2.695 2.699 6e-3 1.67 5e-3 3.339-1e-3 5.009-2e-3 0.336 0.026 0.647 0.375 0.806 0.372 0.169 0.588-0.089 0.809-0.318v-6.015c-0.026-0.07-0.06-0.139-0.075-0.211-0.405-1.919-1.866-3.132-3.848-3.138-4.237-0.013-8.473-7e-3 -12.709-2e-3 -0.939 2e-3 -1.784 0.288-2.515 0.899-0.772 0.645-1.155 1.496-1.358 2.452z" fill="#fff"/></g><g transform="translate(-18.335 29.507)"><path d="m0 0c0.81 0.811 1.537 1.539 2.264 2.266 0.097 0.097 0.193 0.194 0.289 0.29 0.368 0.364 0.731 0.43 0.991 0.18 0.289-0.278 0.233-0.607-0.176-1.019-0.503-0.507-1.008-1.01-1.513-1.514-0.643-0.644-1.284-1.291-1.932-1.931-0.362-0.358-0.665-0.364-1.02-0.01-1.184 1.176-2.364 2.357-3.541 3.541-0.341 0.343-0.368 0.648-0.109 0.916 0.246 0.255 0.623 0.215 0.956-0.115 0.743-0.738 1.482-1.48 2.223-2.22 0.103-0.102 0.21-0.199 0.383-0.363v11.541c0 0.122-9e-3 0.244 5e-3 0.364 0.042 0.35 0.249 0.566 0.596 0.567 0.33 1e-3 0.521-0.222 0.575-0.542 0.022-0.133 9e-3 -0.272 9e-3 -0.409v-10.926z" fill="#fff"/></g></g></svg>
