<?xml version="1.0" encoding="UTF-8"?>
<svg width="19.871" height="22.675" version="1.1" viewBox="0 0 19.871 22.675" xml:space="preserve" xmlns="http://www.w3.org/2000/svg"><g transform="matrix(1.3333 0 0 -1.3333 -24.434 50.575)"><g transform="translate(25.97 37.931)"><path d="m0 0c0.937-0.928 1.876-1.853 2.808-2.786 0.241-0.242 0.238-0.565 0.026-0.776-0.209-0.208-0.529-0.206-0.774 0.036-0.554 0.546-1.097 1.103-1.706 1.719-0.013-0.187-0.026-0.29-0.026-0.393-2e-3 -2.982-4e-3 -5.965-1e-3 -8.947 0-0.316-0.052-0.587-0.42-0.651-0.379-0.066-0.609 0.163-0.61 0.61-2e-3 1.786-1e-3 3.573-1e-3 5.36v4.028c-0.224-0.221-0.379-0.372-0.532-0.526-0.401-0.4-0.795-0.807-1.202-1.2-0.25-0.241-0.565-0.245-0.775-0.035-0.212 0.212-0.216 0.532 0.027 0.775 0.931 0.934 1.871 1.858 2.808 2.786z" fill="#fff"/></g><g transform="translate(19.621 20.925)"><path d="m0 0c-0.98 0.33-1.311 1.035-1.295 2.035 0.034 2.254 9e-3 4.509 0.011 6.763 0 1.195 0.616 1.813 1.814 1.818 0.944 4e-3 1.889 4e-3 2.833-1e-3 0.443-2e-3 0.648-0.167 0.655-0.505 7e-3 -0.359-0.202-0.527-0.664-0.527-0.944-1e-3 -1.889 2e-3 -2.833 0-0.557-2e-3 -0.746-0.193-0.746-0.751 0-2.356 0-4.711 1e-3 -7.066 0-0.523 0.179-0.706 0.7-0.706 3.803-2e-3 7.607-2e-3 11.41 0 0.466 0 0.657 0.197 0.658 0.672 2e-3 2.381 1e-3 4.761 0 7.142 0 0.511-0.192 0.705-0.71 0.708-0.957 4e-3 -1.914 0-2.871 1e-3 -0.465 1e-3 -0.668 0.166-0.66 0.53 7e-3 0.339 0.209 0.499 0.654 0.501 1.008 4e-3 2.015 0.011 3.023-1e-3 0.943-0.01 1.619-0.683 1.622-1.625 8e-3 -2.444 7e-3 -4.887 0-7.33-2e-3 -0.871-0.499-1.381-1.282-1.658z" fill="#fff"/></g></g></svg>
