<?xml version="1.0" encoding="UTF-8"?>
<svg width="102.26" height="91.513" version="1.1" viewBox="0 0 102.26 91.513" xml:space="preserve" xmlns="http://www.w3.org/2000/svg"><defs><clipPath id="clipPath792-6"><path d="m328.75 71.259h92.196v92.196h-92.196z"/></clipPath><clipPath id="clipPath812-9"><path d="m329.46 94.781h76.694v45.137h-76.694z"/></clipPath><clipPath id="clipPath824-2"><path d="m328.75 71.259h92.196v92.196h-92.196z"/></clipPath></defs><g transform="matrix(1.3333 0 0 -1.3333 -439.28 202.23)"><g clip-path="url(#clipPath792-6)"><g transform="translate(406.15 98.413)"><path d="m0 0c0-1.993-1.616-3.609-3.609-3.609h-69.476c-1.993 0-3.609 1.616-3.609 3.609v37.896c0 1.993 1.616 3.609 3.609 3.609h69.476c1.993 0 3.609-1.616 3.609-3.609z" fill="#fff"/></g><g transform="translate(348.27 112.89)"><path d="m0 0h-10.187v8.731h10.187l-1e-3 6e-3v10.187h8.731v-10.191h10.187v-8.731h-10.187v1e-3 -10.187h-8.731v10.187z" fill="#ed1d24"/></g><g transform="translate(380.7 117.41)"><path d="m0 0c0 6.784 5.5 12.284 12.284 12.284 1.511 0 2.958-0.273 4.294-0.772-2.513 1.988-5.688 3.176-9.141 3.176-8.141 0-14.74-6.6-14.74-14.741s6.599-14.74 14.74-14.74c3.568 0 6.841 1.267 9.391 3.377-1.406-0.56-2.939-0.868-4.544-0.868-6.784 0-12.284 5.5-12.284 12.284" fill="#ed1d24"/></g></g></g><g transform="matrix(1.3333 0 0 -1.3333 -439.28 202.23)"><g clip-path="url(#clipPath812-9)"><g transform="translate(403.9 100.67)"><path d="m0 0c0-1.993-1.616-3.609-3.609-3.609h-64.965c-1.993 0-3.609 1.616-3.609 3.609v33.384c0 1.994 1.616 3.609 3.609 3.609h64.965c1.993 0 3.609-1.615 3.609-3.609z" fill="none" stroke="#ed1d24" stroke-width="1.273"/></g></g></g><g transform="matrix(1.3333 0 0 -1.3333 -439.28 202.23)"><g clip-path="url(#clipPath824-2)"><path d="m331.64 151.52h0.882v-6.628h-0.882z"/><g transform="translate(334.23 151.52)"><path d="m0 0h0.937l3.491-5.374h0.018v5.374h0.836v-6.628h-0.966l-3.462 5.319h-0.019v-5.319h-0.835z"/></g><g transform="translate(342.68 150.78)"><path d="m0 0h-2.209v0.742h5.3v-0.742h-2.209v-5.885h-0.882z"/></g><g transform="translate(346.73 151.52)"><path d="m0 0h4.576v-0.742h-3.694v-2.108h3.443v-0.742h-3.443v-2.293h3.722v-0.743h-4.604z"/></g><g transform="translate(355.35 148.46)"><path d="m0 0c0.826 0 1.532 0.214 1.532 1.179 0 0.65-0.353 1.132-1.179 1.132h-2.191v-2.311zm-2.72 3.054h3.119c1.244 0 2.014-0.678 2.014-1.736 0-0.798-0.352-1.457-1.151-1.68v-0.018c0.771-0.149 0.929-0.715 0.993-1.365 0.056-0.65 0.019-1.374 0.39-1.829h-0.984c-0.25 0.27-0.111 0.984-0.241 1.634-0.093 0.65-0.25 1.198-1.104 1.198h-2.154v-2.832h-0.882z"/></g><g transform="translate(359.21 151.52)"><path d="m0 0h0.938l3.49-5.374h0.018v5.374h0.835v-6.628h-0.965l-3.462 5.319h-0.018v-5.319h-0.836z"/></g><g transform="translate(367.29 147.63)"><path d="m0 0h2.246l-1.104 3.091h-0.019zm0.659 3.889h0.975l2.589-6.627h-0.974l-0.724 1.995h-2.803l-0.743-1.995h-0.91z"/></g><g transform="translate(373.05 150.78)"><path d="m0 0h-2.209v0.742h5.3v-0.742h-2.209v-5.885h-0.882z"/></g><path d="m377.14 151.52h0.882v-6.628h-0.882z"/><g transform="translate(382.55 145.47)"><path d="m0 0c1.615 0 2.293 1.392 2.293 2.729s-0.678 2.729-2.293 2.729-2.292-1.392-2.292-2.729 0.677-2.729 2.292-2.729m0 6.2c2.107 0 3.175-1.67 3.175-3.471s-1.068-3.472-3.175-3.472-3.174 1.671-3.174 3.472 1.067 3.471 3.174 3.471"/></g><g transform="translate(387.02 151.52)"><path d="m0 0h0.938l3.49-5.374h0.018v5.374h0.836v-6.628h-0.966l-3.462 5.319h-0.019v-5.319h-0.835z"/></g><g transform="translate(395.1 147.63)"><path d="m0 0h2.246l-1.104 3.091h-0.019zm0.659 3.889h0.975l2.589-6.627h-0.974l-0.724 1.995h-2.803l-0.743-1.995h-0.91z"/></g><g transform="translate(400.21 151.52)"><path d="m0 0h0.882v-5.885h3.508v-0.743h-4.39z"/></g><g transform="translate(339.38 89.825)"><path d="m0 0h4.353v-0.743h-3.471v-2.107h3.044v-0.742h-3.044v-3.036h-0.882z"/></g><g transform="translate(344.94 89.825)"><path d="m0 0h4.576v-0.743h-3.694v-2.107h3.443v-0.742h-3.443v-2.293h3.722v-0.743h-4.604z"/></g><g transform="translate(351.73 83.94)"><path d="m0 0h1.467c0.603 0 2.227 0.167 2.227 2.609 0 1.577-0.584 2.533-2.209 2.533h-1.485zm-0.882 5.885h2.274c2.043 0 3.184-1.021 3.184-3.156 0-2.218-0.974-3.471-3.184-3.471h-2.274z"/></g><g transform="translate(357.61 89.825)"><path d="m0 0h4.576v-0.743h-3.694v-2.107h3.443v-0.742h-3.443v-2.293h3.722v-0.743h-4.604z"/></g><g transform="translate(366.23 86.771)"><path d="m0 0c0.826 0 1.532 0.213 1.532 1.179 0 0.649-0.353 1.132-1.179 1.132h-2.191v-2.311zm-2.72 3.054h3.119c1.244 0 2.014-0.678 2.014-1.736 0-0.798-0.353-1.458-1.151-1.68v-0.019c0.771-0.148 0.929-0.714 0.994-1.364 0.055-0.65 0.018-1.374 0.39-1.829h-0.985c-0.25 0.269-0.111 0.984-0.241 1.634-0.093 0.65-0.25 1.197-1.104 1.197h-2.154v-2.831h-0.882z"/></g><g transform="translate(371.24 85.935)"><path d="m0 0h2.246l-1.104 3.092h-0.019zm0.659 3.89h0.975l2.589-6.628h-0.974l-0.724 1.996h-2.803l-0.743-1.996h-0.91z"/></g><g transform="translate(376.99 89.082)"><path d="m0 0h-2.209v0.743h5.3v-0.743h-2.209v-5.885h-0.882z"/></g><path d="m381.08 89.825h0.882v-6.628h-0.882z"/><g transform="translate(386.48 83.782)"><path d="m0 0c1.615 0 2.293 1.393 2.293 2.729 0 1.337-0.678 2.729-2.293 2.729s-2.292-1.392-2.292-2.729c0-1.336 0.677-2.729 2.292-2.729m0 6.201c2.107 0 3.175-1.671 3.175-3.472s-1.068-3.471-3.175-3.471-3.174 1.67-3.174 3.471 1.067 3.472 3.174 3.472"/></g><g transform="translate(390.96 89.825)"><path d="m0 0h0.937l3.491-5.374h0.018v5.374h0.836v-6.628h-0.966l-3.462 5.319h-0.019v-5.319h-0.835z"/></g></g></g></svg>
