<?xml version="1.0" encoding="UTF-8"?>
<svg width="19.95" height="25.815" version="1.1" viewBox="0 0 19.95 25.815" xml:space="preserve" xmlns="http://www.w3.org/2000/svg"><g transform="matrix(1.3333 0 0 -1.3333 -25.39 77.164)"><g transform="translate(32.779 52.866)"><path d="m0 0c-1.242 1.265-2.502 2.549-3.741 3.812v-3.812h3.457zm-13.128-13.705h13.72v13.074c-0.208 0-0.391-1e-3 -0.573 0-1.289 6e-3 -2.576 0.027-3.864 0.012-0.411-4e-3 -0.551 0.138-0.548 0.545 0.01 1.33-7e-3 2.661-0.017 3.992-1e-3 0.165-0.019 0.329-0.029 0.503h-8.689zm-0.608 9.058c1e-3 3.019 0 6.037 1e-3 9.056 0 0.601 1e-3 0.598 0.592 0.598 2.933-2e-3 5.866 4e-3 8.798-0.013 0.213-1e-3 0.479-0.102 0.629-0.25 1.582-1.555 3.149-3.124 4.705-4.703 0.132-0.133 0.229-0.367 0.23-0.554 0.01-4.421 7e-3 -8.841 3e-3 -13.262 0-0.517-0.047-0.568-0.565-0.568-4.65-4e-3 -9.3 1e-3 -13.949-0.011-0.41-1e-3 -0.434 0.234-0.435 0.522-4e-3 1.23-8e-3 2.461-9e-3 3.691-1e-3 1.831 0 3.662 0 5.494" fill="#fff"/></g><g transform="translate(23.351 51.722)"><path d="m0 0c-0.897-0.024-1.687-0.887-1.712-1.81-0.03-1.103 0.734-2.025 1.754-2.113 1.151-0.1 2.051 0.575 2.216 1.709-0.544 0-1.083-4e-3 -1.62 2e-3 -0.59 5e-3 -0.62 0.03-0.635 0.634-0.013 0.525-3e-3 1.051-3e-3 1.578m0.608-1.63c0.666 0 1.266-0.013 1.866 4e-3 0.355 0.01 0.483-0.128 0.464-0.483-0.068-1.326-1.249-2.426-2.629-2.433-1.349-5e-3 -2.548 1.082-2.629 2.385-0.089 1.44 0.903 2.684 2.277 2.856 0.529 0.066 0.645-0.029 0.65-0.554 5e-3 -0.57 1e-3 -1.14 1e-3 -1.775" fill="#fff"/></g><g transform="translate(29.352 50.631)"><path d="m0 0h-0.605c0-0.182 1e-3 -0.36 0-0.539-0.016-1.272-0.029-2.544-0.051-3.817-3e-3 -0.198 0.057-0.479-0.283-0.464-0.321 0.015-0.277 0.285-0.277 0.487-5e-3 1.516 5e-3 3.031 0 4.547-2e-3 0.285 0.141 0.383 0.39 0.391 0.157 5e-3 0.314 1e-3 0.472 1e-3 0.905-2e-3 0.919-2e-3 0.932-0.928 0.018-1.345 0.01-2.689 0.016-4.033 1e-3 -0.235-0.038-0.457-0.323-0.456-0.283 2e-3 -0.272 0.233-0.272 0.44 2e-3 1.288 1e-3 2.575 1e-3 3.862z" fill="#fff"/></g><g transform="translate(26.359 40.93)"><path d="m0 0c1.629 0 3.259-2e-3 4.888 2e-3 0.245 1e-3 0.506-7e-3 0.497-0.313-9e-3 -0.257-0.241-0.299-0.482-0.298-3.215 0.012-6.43 0.018-9.646 0.026-0.143 1e-3 -0.297-0.017-0.425 0.03-0.124 0.045-0.223 0.163-0.332 0.249 0.118 0.093 0.226 0.237 0.357 0.266 0.219 0.05 0.456 0.031 0.684 0.031 1.486 2e-3 2.973 1e-3 4.459 1e-3z" fill="#fff"/></g><g transform="translate(26.308 43.98)"><path d="m0 0c-1.645 0-3.288 1e-3 -4.932-1e-3 -0.221 0-0.469-0.015-0.491 0.275-0.023 0.318 0.245 0.299 0.457 0.302 1.272 0.015 2.544 0.033 3.817 0.035 1.887 2e-3 3.774-8e-3 5.662-0.016 0.185-1e-3 0.382 0.018 0.552-0.037 0.128-0.041 0.223-0.187 0.333-0.287-0.112-0.08-0.221-0.225-0.337-0.229-0.671-0.03-1.343-0.03-2.015-0.032-1.016-3e-3 -2.031-1e-3 -3.046-1e-3z" fill="#fff"/></g><g transform="translate(26.324 42.197)"><path d="m0 0c-1.66 0-3.32-1e-3 -4.979 2e-3 -0.127 0-0.276-6e-3 -0.375 0.055-0.067 0.042-0.124 0.241-0.084 0.288 0.076 0.093 0.22 0.18 0.339 0.183 0.73 0.021 1.459 0.021 2.19 0.021 2.59 2e-3 5.18 1e-3 7.771 1e-3 0.072 0 0.16 0.026 0.211-7e-3 0.129-0.082 0.241-0.191 0.361-0.29-0.123-0.093-0.243-0.263-0.37-0.268-0.657-0.027-1.315-0.013-1.973-0.013h-3.091z" fill="#fff"/></g><g transform="translate(31.768 49.399)"><path d="m0 0h-0.652c0-0.928 1e-3 -1.839 0-2.75 0-0.171 0.021-0.352-0.025-0.511-0.035-0.121-0.161-0.216-0.246-0.322-0.098 0.116-0.27 0.226-0.281 0.349-0.036 0.412-0.014 0.829-0.013 1.244 1e-3 0.715 0.01 1.43 2e-3 2.145-4e-3 0.348 0.151 0.496 0.493 0.484 0.3-0.011 0.601 2e-3 0.902-5e-3 0.272-6e-3 0.416-0.134 0.414-0.426-8e-3 -1.102-3e-3 -2.203-0.012-3.304-1e-3 -0.14-0.028-0.292-0.092-0.413-0.029-0.056-0.201-0.099-0.26-0.065-0.091 0.054-0.197 0.176-0.202 0.274-0.024 0.556-0.024 1.114-0.027 1.673-4e-3 0.539-1e-3 1.079-1e-3 1.627" fill="#fff"/></g><g transform="translate(24.81 50.932)"><path d="m0 0c0.253 0.013 0.48 0.025 0.708 0.037 0.021 0.04 0.04 0.079 0.061 0.119l-0.671 0.64c-0.033-0.028-0.066-0.056-0.098-0.084zm0.43-0.562c-1.225 9e-3 -1.012-0.142-1.042 1.045-3e-3 0.128 3e-3 0.257 4e-3 0.385 5e-3 0.665 0.105 0.74 0.763 0.576 0.665-0.165 1.242-0.842 1.318-1.527 0.037-0.344-0.074-0.518-0.445-0.483-0.198 0.019-0.399 4e-3 -0.598 4e-3" fill="#fff"/></g></g></svg>
