<?xml version="1.0" encoding="UTF-8"?>
<svg width="21.139" height="21.186" version="1.1" viewBox="0 0 21.139 21.186" xml:space="preserve" xmlns="http://www.w3.org/2000/svg"><g transform="matrix(1.3333 0 0 -1.3333 -37.25 53.926)"><g transform="translate(35.861 31.025)"><path d="m0 0c0.202 0.424 0.378 0.788 0.549 1.153 0.627 1.335 1.29 2.656 1.867 4.013 0.401 0.944 0.185 1.86-0.468 2.64-0.638 0.763-1.474 1.04-2.46 0.853-1.689-0.321-2.558-2.194-1.78-3.838 0.469-0.992 0.938-1.983 1.408-2.974 0.284-0.597 0.572-1.194 0.884-1.847m7.214-5.757c-0.217 2.768-0.432 5.509-0.646 8.241-0.074 0.023-0.111 0.043-0.148 0.043-1.411 3e-3 -2.823 7e-3 -4.235-1e-3 -0.093-1e-3 -0.233-0.074-0.271-0.152-0.492-1.006-0.969-2.019-1.456-3.042 0.22-0.209 0.709-0.269 0.453-0.684-0.082-0.132-0.402-0.118-0.614-0.17-0.152-0.141-0.288-0.401-0.612-0.244-0.318 0.153-0.146 0.412-0.096 0.65 0.028 0.138 0.01 0.31-0.05 0.438-0.454 0.984-0.93 1.958-1.382 2.942-0.098 0.215-0.223 0.275-0.448 0.274-1.32-0.01-2.641-4e-3 -3.961-6e-3 -0.1-1e-3 -0.199-0.02-0.318-0.033-0.216-2.765-0.429-5.504-0.644-8.256zm-9.528 8.992c-0.251 0.535-0.488 0.986-0.678 1.454-0.528 1.299-0.374 2.522 0.533 3.598 0.846 1.002 1.969 1.319 3.221 1.03 1.353-0.313 2.15-1.235 2.451-2.57 0.19-0.849 0.014-1.66-0.383-2.428-0.173-0.334-0.326-0.677-0.51-1.062 0.178-9e-3 0.302-0.021 0.425-0.021 1.308-1e-3 2.616 1e-3 3.924-1e-3 0.462-1e-3 0.547-0.077 0.583-0.539 0.192-2.475 0.382-4.951 0.572-7.426 0.033-0.43 0.068-0.86 0.104-1.29 0.024-0.294-0.108-0.444-0.404-0.448-0.104-1e-3 -0.209-2e-3 -0.313-2e-3h-14.438c-0.699 0-0.733 0.033-0.679 0.738 0.215 2.801 0.432 5.602 0.65 8.403 0.038 0.492 0.114 0.563 0.599 0.564 1.295 2e-3 2.59 0 3.884 0z" fill="#fff"/></g><g transform="translate(34.468 36.929)"><path d="m0 0c-7e-3 -0.805 0.597-1.417 1.395-1.417 0.78 1e-3 1.386 0.602 1.391 1.381 6e-3 0.804-0.601 1.423-1.395 1.422-0.779-1e-3 -1.385-0.605-1.391-1.386" fill="#fff"/></g><g transform="translate(29.678 27.345)"><path d="m0 0c0.039 0.118 0.068 0.339 0.186 0.497 0.075 0.102 0.293 0.17 0.418 0.139 0.093-0.024 0.222-0.262 0.19-0.355-0.123-0.354-0.088-0.616 0.226-0.861 0.078-0.062 0.086-0.347 0.013-0.433-0.074-0.088-0.324-0.124-0.436-0.065-0.384 0.201-0.573 0.551-0.597 1.078" fill="#fff"/></g><g transform="translate(35.438 28.403)"><path d="m0 0c-0.053-0.117-0.073-0.214-0.131-0.278-0.283-0.325-0.571-0.644-0.867-0.956-0.158-0.167-0.381-0.213-0.498-6e-3 -0.071 0.124-0.047 0.383 0.041 0.505 0.227 0.316 0.499 0.605 0.783 0.871 0.103 0.097 0.296 0.143 0.441 0.131 0.085-7e-3 0.157-0.175 0.231-0.267" fill="#fff"/></g><g transform="translate(31.774 25.916)"><path d="m 0,0 c -0.128,0.135 -0.325,0.251 -0.327,0.371 -0.002,0.126 0.158,0.321 0.291,0.37 C 0.34,0.879 0.734,0.983 1.13,1.048 1.271,1.071 1.437,0.944 1.591,0.885 1.517,0.727 1.48,0.478 1.361,0.428 0.944,0.254 0.498,0.15 0,0" fill="#fff"/></g><g transform="translate(40.048 28.697)"><path d="m 0,0 c -0.075,0.082 -0.237,0.18 -0.252,0.297 -0.015,0.12 0.08,0.311 0.186,0.379 C 0.269,0.891 0.623,1.08 0.987,1.24 1.1,1.29 1.317,1.264 1.396,1.184 1.474,1.104 1.504,0.858 1.439,0.778 1.092,0.345 0.603,0.136 0,0" fill="#fff"/></g><g transform="translate(42.05 30.752)"><path d="m0 0c-0.076-0.07-0.206-0.284-0.326-0.278-0.134 6e-3 -0.296 0.189-0.381 0.333-0.16 0.272-0.293 0.564-0.397 0.862-0.049 0.145-6e-3 0.321-5e-3 0.484 0.173-0.011 0.405 0.044 0.511-0.047 0.369-0.314 0.539-0.749 0.598-1.354" fill="#fff"/></g><g transform="translate(38.848 28.604)"><path d="m0 0c-0.489 0.142-0.898 0.228-1.276 0.387-0.124 0.052-0.169 0.292-0.25 0.446 0.152 0.066 0.315 0.206 0.453 0.185 0.382-0.058 0.762-0.159 1.124-0.294 0.129-0.049 0.295-0.259 0.278-0.371-0.019-0.133-0.217-0.241-0.329-0.353" fill="#fff"/></g><g transform="translate(31.323 28.875)"><path d="m0 0c0.303-0.169 0.561-0.271 0.756-0.442 0.082-0.073 0.096-0.344 0.024-0.435-0.069-0.089-0.289-0.095-0.436-0.08-0.132 0.014-0.252 0.137-0.386 0.157-0.253 0.039-0.469 0.135-0.39 0.409 0.043 0.148 0.262 0.245 0.432 0.391" fill="#fff"/></g><g transform="translate(40.018 32.724)"><path d="m0 0c0.132-0.136 0.312-0.238 0.324-0.357 0.012-0.12-0.117-0.294-0.233-0.377-0.164-0.117-0.365-0.21-0.563-0.24-0.147-0.022-0.363 0.028-0.451 0.13-0.06 0.069-1e-3 0.353 0.092 0.42 0.233 0.17 0.517 0.271 0.831 0.424" fill="#fff"/></g><g transform="translate(36.578 36.909)"><path d="m0 0c1e-3 0.377-0.358 0.73-0.733 0.719-0.364-0.011-0.699-0.349-0.703-0.711-4e-3 -0.379 0.347-0.719 0.734-0.711 0.371 8e-3 0.701 0.339 0.702 0.703m-2.11 0.02c6e-3 0.781 0.612 1.385 1.39 1.386 0.794 1e-3 1.402-0.618 1.396-1.422-5e-3 -0.779-0.612-1.38-1.392-1.38-0.798-1e-3 -1.401 0.611-1.394 1.416" fill="#fff"/></g><g transform="translate(36.578 36.909)"><path d="m0 0c-1e-3 -0.364-0.331-0.695-0.702-0.703-0.387-8e-3 -0.738 0.332-0.734 0.711 4e-3 0.362 0.339 0.7 0.703 0.711 0.375 0.011 0.734-0.342 0.733-0.719" fill="#fff"/></g></g></svg>
