<?xml version="1.0" encoding="UTF-8"?>
<svg width="21.386" height="21.691" version="1.1" viewBox="0 0 21.386 21.691" xml:space="preserve" xmlns="http://www.w3.org/2000/svg"><g transform="matrix(1.3333 0 0 -1.3333 -65.159 54.179)"><g transform="translate(54.057 35.518)"><path d="m0 0c0.7 0 1.4-5e-3 2.101 3e-3 0.274 3e-3 0.476-0.093 0.488-0.377 0.012-0.305-0.195-0.432-0.484-0.432-1.427-1e-3 -2.855-2e-3 -4.283-1e-3 -0.285 1e-3 -0.495 0.12-0.486 0.43 9e-3 0.29 0.208 0.382 0.481 0.379 0.728-7e-3 1.455-2e-3 2.183-2e-3" fill="#fff"/></g><g transform="translate(61.062 35.099)"><path d="m0 0c-0.319 0.11-0.588 0.203-0.887 0.306v1.156h-1.547c-0.26 0-0.521-1e-3 -0.783 0-0.651 2e-3 -0.777 0.123-0.78 0.763-2e-3 0.794 0 1.587 0 2.401-0.104 8e-3 -0.184 0.02-0.264 0.02-2.158 1e-3 -4.316 3e-3 -6.474 0-0.433-1e-3 -0.574-0.14-0.574-0.565-2e-3 -4.455 1e-3 -8.908-3e-3 -13.362 0-0.381 0.168-0.558 0.544-0.558 3.122 1e-3 6.242 1e-3 9.363 0 0.359 0 0.529 0.174 0.522 0.533-5e-3 0.245-1e-3 0.491-1e-3 0.72 0.872 0.413 0.86 0.125 0.898-0.548 0.052-0.909-0.547-1.614-1.586-1.599-3.024 0.043-6.048 0.013-9.073 0.014-1.063 0-1.548 0.493-1.548 1.569v13.196c0 0.951 0.527 1.482 1.472 1.482 2.2 0 4.399-0.01 6.598 7e-3 0.541 4e-3 0.947-0.186 1.3-0.58 0.75-0.841 1.504-1.68 2.281-2.496 0.396-0.416 0.593-0.873 0.547-1.447-0.026-0.314-5e-3 -0.632-5e-3 -1.012" fill="#fff"/></g><g transform="translate(59.224 33.644)"><path d="m0 0c-1.495-2e-3 -2.698-1.205-2.697-2.695 1e-3 -1.459 1.264-2.708 2.721-2.69 1.463 0.018 2.668 1.235 2.668 2.694 0 1.504-1.19 2.693-2.692 2.691m2.599-5.915c-0.148 0.156-0.27 0.285-0.414 0.438-0.975-0.702-2.038-0.931-3.194-0.597-0.823 0.237-1.472 0.724-1.942 1.438-0.974 1.478-0.718 3.428 0.597 4.601 1.306 1.164 3.246 1.197 4.609 0.093 1.152-0.933 1.927-2.933 0.536-4.948 0.146-0.118 0.301-0.245 0.484-0.394 0.24 0.252 0.422 0.092 0.622-0.116 0.535-0.553 1.079-1.097 1.631-1.632 0.185-0.179 0.224-0.31 0.019-0.503-1.179-1.109-0.71-1.091-1.825-0.031-0.338 0.321-0.662 0.658-0.993 0.988-0.288 0.29-0.288 0.291-0.13 0.663" fill="#fff"/></g><g transform="translate(56.309 27.426)"><path d="m0 0c-0.122-0.016-0.217-0.039-0.312-0.039-1.319-3e-3 -2.639-3e-3 -3.959-2e-3 -0.109 0-0.25-0.014-0.319 0.045-0.12 0.103-0.275 0.263-0.267 0.391 6e-3 0.127 0.174 0.29 0.31 0.353 0.139 0.063 0.324 0.029 0.488 0.029 0.908 1e-3 1.816-0.016 2.722 6e-3 0.408 0.01 0.754-0.04 0.995-0.411 0.08-0.124 0.201-0.222 0.342-0.372" fill="#fff"/></g><g transform="translate(55.172 33.101)"><path d="m0 0c-0.102-0.253-0.168-0.478-0.282-0.674-0.045-0.077-0.196-0.131-0.299-0.132-0.894-0.01-1.787-5e-3 -2.681-6e-3 -0.263-1e-3 -0.471 0.076-0.479 0.38-7e-3 0.293 0.186 0.426 0.448 0.428 1.082 9e-3 2.165 4e-3 3.293 4e-3" fill="#fff"/></g><g transform="translate(54.654 30.642)"><path d="m0 0c0.047-0.281 0.087-0.52 0.134-0.806-1.006 0-2-0.015-2.991 0.019-0.128 4e-3 -0.327 0.246-0.352 0.401-0.041 0.253 0.159 0.385 0.418 0.386h2.791" fill="#fff"/></g></g></svg>
