<?xml version="1.0" encoding="UTF-8"?>
<svg width="28.058" height="28.815" version="1.1" viewBox="0 0 28.058 28.815" xml:space="preserve" xmlns="http://www.w3.org/2000/svg"><g transform="matrix(1.3333 0 0 -1.3333 2.4861 57.741)"><g transform="translate(16.535 34.282)"><path d="m0 0c0.309 1.096-0.042 1.377-1.417 1.146v-1.146zm-2.237 5.154c0 0.742 0.025 1.432-9e-3 2.119-0.025 0.498-0.329 0.889-0.818 0.934-0.747 0.067-1.503 0.017-2.22 0.017 0.989-0.996 1.987-2.002 3.047-3.07m-15.409-12.244c0.031-5e-3 0.062-0.01 0.092-0.015 0.338 2.003 0.673 4.006 1.012 6.009 0.119 0.699 0.509 1.041 1.217 1.074 0.232 0.011 0.467 1e-3 0.686 1e-3v3.61c-0.462 0-0.872 0.02-1.28-5e-3 -0.525-0.032-0.81-0.343-0.83-0.869-0.011-0.299-0.012-0.599 0-0.898 0.014-0.338-0.063-0.549-0.457-0.638-0.177-0.041-0.419-0.342-0.421-0.527-0.028-2.58-0.019-5.161-0.019-7.742m15.415 7.097c0 1.302 7e-3 2.554-0.011 3.805-2e-3 0.139-0.126 0.302-0.236 0.412-1.265 1.277-2.534 2.551-3.817 3.81-0.142 0.139-0.384 0.247-0.58 0.249-1.872 0.019-3.746 0.021-5.618 7e-3 -0.906-7e-3 -1.33-0.456-1.331-1.364-4e-3 -2.098-1e-3 -4.196-1e-3 -6.293v-0.626zm-6.416-11.826c2.717 0 5.435 6e-3 8.153-6e-3 0.454-2e-3 0.666 0.138 0.744 0.615 0.527 3.25 1.082 6.495 1.629 9.742 0.09 0.537-0.044 0.691-0.641 0.691-5.454 2e-3 -10.908-3e-3 -16.362 8e-3 -0.439 1e-3 -0.646-0.15-0.717-0.585-0.522-3.213-1.06-6.424-1.589-9.636-0.123-0.751-0.046-0.828 0.743-0.828 2.679-1e-3 5.36-1e-3 8.04-1e-3m-5.939 16.132c0 0.885-2e-3 1.688 1e-3 2.492 5e-3 1.499 0.716 2.217 2.192 2.218 2.941 1e-3 5.882 2e-3 8.824-1e-3 1.354-1e-3 2.112-0.763 2.113-2.126 3e-3 -1.628 1e-3 -3.255 1e-3 -4.838 0.639-0.121 1.278-0.126 1.809-0.371 0.653-0.301 0.42-1.043 0.492-1.674 0.212-0.012 0.409-0.022 0.605-0.034 0.841-0.051 1.304-0.589 1.169-1.425-0.467-2.88-0.95-5.757-1.429-8.635-0.079-0.48-0.154-0.96-0.25-1.437-0.147-0.733-0.532-1.056-1.285-1.064-0.993-0.01-1.986-2e-3 -2.979-2e-3 -4.515 0-9.03-1e-3 -13.544 0-1.124 0-1.529 0.399-1.529 1.513-2e-3 3.822 2e-3 7.644-4e-3 11.466-2e-3 0.612 0.076 1.153 0.704 1.466 0.102 0.051 0.157 0.277 0.164 0.425 0.068 1.59 0.511 2.026 2.08 2.027z" fill="#fff"/></g><g transform="translate(6.9817 38.71)"><path d="m0 0c-0.898 0-1.799 0.019-2.696-0.015-0.19-7e-3 -0.371-0.21-0.557-0.322 0.19-0.129 0.377-0.367 0.568-0.37 1.817-0.028 3.633-0.027 5.45-2e-3 0.183 2e-3 0.494 0.189 0.519 0.33 0.063 0.364-0.255 0.38-0.531 0.379-0.917-1e-3 -1.835 0-2.753 0m0.1 2.459c-0.918 0-1.837 0.021-2.754-0.017-0.203-8e-3 -0.545-0.201-0.567-0.348-0.053-0.349 0.277-0.371 0.548-0.371 1.799 0 3.598-0.012 5.396 0.016 0.197 3e-3 0.532 0.201 0.556 0.35 0.061 0.354-0.259 0.372-0.539 0.371-0.88-4e-3 -1.761-1e-3 -2.64-1e-3m-0.061-5.641c0.897 0 1.794-0.021 2.689 0.016 0.198 9e-3 0.386 0.225 0.58 0.345-0.187 0.129-0.371 0.368-0.56 0.372-1.793 0.028-3.586 0.017-5.379 0.016-0.29 0-0.625-5e-3 -0.606-0.394 0.018-0.377 0.354-0.358 0.642-0.356 0.878 4e-3 1.756 1e-3 2.634 1e-3" fill="#fff"/></g><g transform="translate(16.535 34.282)"><path d="m0 0h-1.417v1.146c1.375 0.231 1.726-0.05 1.417-1.146" fill="#fff"/></g><g transform="translate(7.0207 35.528)"><path d="m0 0c-0.878 0-1.756 2e-3 -2.634-1e-3 -0.288-2e-3 -0.624-0.021-0.642 0.356-0.019 0.389 0.316 0.394 0.606 0.394 1.793 1e-3 3.586 0.012 5.379-0.017 0.188-3e-3 0.373-0.242 0.56-0.372-0.194-0.12-0.382-0.336-0.581-0.344-0.894-0.037-1.792-0.016-2.688-0.016" fill="#fff"/></g><g transform="translate(7.0813 41.169)"><path d="m0 0c0.88 0 1.761-3e-3 2.641 1e-3 0.279 1e-3 0.599-0.017 0.539-0.371-0.025-0.149-0.36-0.347-0.557-0.35-1.798-0.028-3.597-0.016-5.395-0.016-0.272 0-0.602 0.022-0.548 0.371 0.021 0.147 0.363 0.34 0.566 0.348 0.917 0.038 1.836 0.017 2.754 0.017" fill="#fff"/></g><g transform="translate(6.9817 38.71)"><path d="m0 0c0.918 0 1.836-1e-3 2.753 0 0.276 1e-3 0.594-0.015 0.531-0.379-0.025-0.141-0.336-0.328-0.519-0.33-1.817-0.025-3.633-0.026-5.45 2e-3 -0.191 3e-3 -0.378 0.241-0.568 0.37 0.186 0.112 0.367 0.315 0.557 0.322 0.897 0.034 1.798 0.015 2.696 0.015" fill="#fff"/></g></g></svg>
