<?xml version="1.0" encoding="UTF-8"?>
<svg width="17.877" height="22.565" version="1.1" viewBox="0 0 17.877 22.565" xml:space="preserve" xmlns="http://www.w3.org/2000/svg"><g transform="matrix(1.3333,0,0,-1.3333,-26.43,53.538)"><g fill="#fff"><path d="m28.284 32.739h-2.807v-0.68h2.807zm2.829-1.769h-5.635v-0.677h5.635zm-2.102 1.092h2.096v2.095h-2.096zm-3.535-5.304h5.634v0.686h-5.634zm5.638 2.448h-5.631v-0.684h5.631z"/><path d="m31.114 28.522h-5.631v0.684h5.631z"/><path d="m25.476 27.444h5.634v-0.686h-5.634z"/><path d="m29.011 34.157h2.096v-2.095h-2.096z"/><path d="m31.113 30.293h-5.635v0.677h5.635z"/><path d="m28.284 32.059h-2.807v0.68h2.807z"/></g><g transform="translate(21.552,27.106)"><path d="m0 0v11.66h7.474v0.687h-8.486v-12.347zm0.716 10.935v-12.334h1.043v0.231c0 3.658 2e-3 7.316-4e-3 10.975 0 0.182 0.046 0.228 0.227 0.227 2.392-6e-3 4.783-4e-3 7.174-4e-3h0.259v0.905zm10.249-1.626h-8.483v-12.487h8.483zm-12.694-10.03v13.768h9.916v-1.391h1.949v-1.626h1.543v-13.907h-9.914v1.744h-1.764v1.412z" fill="#fff"/></g></g></svg>
