<?xml version="1.0" encoding="UTF-8"?>
<svg width="22.127" height="29.462" version="1.1" viewBox="0 0 22.127 29.462" xml:space="preserve" xmlns="http://www.w3.org/2000/svg"><g transform="matrix(1.3333 0 0 -1.3333 -28.716 58.064)"><g transform="translate(29.844 22.795)"><path d="m0 0c0.089 0.106 0.155 0.177 0.212 0.254 1.297 1.744 2.624 3.467 3.878 5.24 1.001 1.416 1.862 2.923 2.525 4.532 0.418 1.012 0.694 2.05 0.561 3.159-0.228 1.908-1.036 3.527-2.518 4.754-2.07 1.714-4.426 2.167-6.977 1.326-2.002-0.659-3.434-2.008-4.28-3.934-0.672-1.533-0.829-3.107-0.235-4.724 0.43-1.17 0.987-2.274 1.621-3.34 1.379-2.319 2.978-4.484 4.66-6.591 0.175-0.218 0.354-0.433 0.553-0.676m-6e-3 20.503c3.827 0.012 7.153-2.728 7.912-6.485 0.319-1.576 0.039-3.052-0.591-4.498-0.812-1.863-1.843-3.604-3.025-5.248-1.228-1.705-2.534-3.355-3.814-5.023-0.352-0.458-0.583-0.451-0.944-0.013-2.124 2.577-4.136 5.234-5.78 8.149-0.727 1.289-1.381 2.614-1.69 4.076-0.227 1.077-0.113 2.143 0.197 3.182 0.761 2.544 2.385 4.321 4.849 5.319 0.923 0.374 1.89 0.542 2.886 0.541" fill="#fff"/></g><g transform="translate(29.844 22.795)"><path d="m0 0c0.089 0.106 0.155 0.177 0.212 0.254 1.297 1.744 2.624 3.467 3.878 5.24 1.001 1.416 1.862 2.923 2.525 4.532 0.418 1.012 0.694 2.05 0.561 3.159-0.228 1.908-1.036 3.527-2.518 4.754-2.07 1.714-4.426 2.167-6.977 1.326-2.002-0.659-3.434-2.008-4.28-3.934-0.672-1.533-0.829-3.107-0.235-4.724 0.43-1.17 0.987-2.274 1.621-3.34 1.379-2.319 2.978-4.484 4.66-6.591 0.175-0.218 0.354-0.433 0.553-0.676zm-6e-3 20.503c3.827 0.012 7.153-2.728 7.912-6.485 0.319-1.576 0.039-3.052-0.591-4.498-0.812-1.863-1.843-3.604-3.025-5.248-1.228-1.705-2.534-3.355-3.814-5.023-0.352-0.458-0.583-0.451-0.944-0.013-2.124 2.577-4.136 5.234-5.78 8.149-0.727 1.289-1.381 2.614-1.69 4.076-0.227 1.077-0.113 2.143 0.197 3.182 0.761 2.544 2.385 4.321 4.849 5.319 0.923 0.374 1.89 0.542 2.886 0.541z" fill="none" stroke="#fff" stroke-miterlimit="10" stroke-width=".5"/></g><g transform="translate(29.843 39.843)"><path d="m0 0c-2.676-3e-3 -4.802-2.314-4.554-4.963 0.167-1.782 1.094-3.04 2.692-3.816 0.265-0.129 0.501-0.063 0.612 0.158 0.113 0.226 0.032 0.442-0.231 0.59-0.161 0.091-0.337 0.158-0.489 0.261-1.354 0.916-1.975 2.198-1.702 3.809 0.264 1.566 1.232 2.6 2.773 2.988 1.523 0.383 2.842-0.073 3.819-1.298 0.985-1.236 1.087-2.615 0.401-4.038-0.348-0.721-0.918-1.234-1.613-1.621-0.254-0.141-0.321-0.389-0.197-0.6 0.121-0.208 0.373-0.262 0.624-0.12 1.595 0.895 2.433 2.266 2.451 4.087 0.024 2.5-2.08 4.566-4.586 4.563" fill="#fff"/></g><g transform="translate(29.843 39.843)"><path d="m0 0c-2.676-3e-3 -4.802-2.314-4.554-4.963 0.167-1.782 1.094-3.04 2.692-3.816 0.265-0.129 0.501-0.063 0.612 0.158 0.113 0.226 0.032 0.442-0.231 0.59-0.161 0.091-0.337 0.158-0.489 0.261-1.354 0.916-1.975 2.198-1.702 3.809 0.264 1.566 1.232 2.6 2.773 2.988 1.523 0.383 2.842-0.073 3.819-1.298 0.985-1.236 1.087-2.615 0.401-4.038-0.348-0.721-0.918-1.234-1.613-1.621-0.254-0.141-0.321-0.389-0.197-0.6 0.121-0.208 0.373-0.262 0.624-0.12 1.595 0.895 2.433 2.266 2.451 4.087 0.024 2.5-2.08 4.566-4.586 4.563z" fill="none" stroke="#fff" stroke-miterlimit="10" stroke-width=".5"/></g><g transform="translate(29.843 39.843)"><path d="m0 0c2.506 3e-3 4.61-2.063 4.586-4.563-0.018-1.821-0.856-3.192-2.451-4.087-0.251-0.142-0.503-0.088-0.624 0.12-0.124 0.211-0.057 0.459 0.197 0.6 0.695 0.387 1.265 0.9 1.613 1.621 0.686 1.423 0.584 2.802-0.401 4.038-0.977 1.225-2.296 1.681-3.819 1.298-1.541-0.388-2.509-1.422-2.773-2.988-0.273-1.611 0.348-2.893 1.702-3.809 0.152-0.103 0.328-0.17 0.489-0.261 0.263-0.148 0.344-0.364 0.231-0.59-0.111-0.221-0.347-0.287-0.612-0.158-1.598 0.776-2.525 2.034-2.692 3.816-0.248 2.649 1.878 4.96 4.554 4.963" fill="#fff"/></g><g transform="translate(29.843 39.843)"><path d="m0 0c2.506 3e-3 4.61-2.063 4.586-4.563-0.018-1.821-0.856-3.192-2.451-4.087-0.251-0.142-0.503-0.088-0.624 0.12-0.124 0.211-0.057 0.459 0.197 0.6 0.695 0.387 1.265 0.9 1.613 1.621 0.686 1.423 0.584 2.802-0.401 4.038-0.977 1.225-2.296 1.681-3.819 1.298-1.541-0.388-2.509-1.422-2.773-2.988-0.273-1.611 0.348-2.893 1.702-3.809 0.152-0.103 0.328-0.17 0.489-0.261 0.263-0.148 0.344-0.364 0.231-0.59-0.111-0.221-0.347-0.287-0.612-0.158-1.598 0.776-2.525 2.034-2.692 3.816-0.248 2.649 1.878 4.96 4.554 4.963z" fill="none" stroke="#fff" stroke-miterlimit="10" stroke-width=".5"/></g></g></svg>
