<?xml version="1.0" encoding="UTF-8"?>
<svg width="28.197" height="19.092" version="1.1" viewBox="0 0 28.197 19.092" xml:space="preserve" xmlns="http://www.w3.org/2000/svg"><g transform="matrix(1.3333 0 0 -1.3333 -33.721 52.879)"><g transform="translate(27.977 32.439)"><path d="m0 0c0-1.542-1e-3 -3.083 1e-3 -4.625 1e-3 -0.204-0.045-0.375-0.247-0.46-0.268-0.111-0.523 0.09-0.525 0.419-4e-3 0.661-1e-3 1.321-1e-3 1.982 0 2.431 1e-3 4.861 1e-3 7.291 0 0.05-1e-3 0.099 1e-3 0.147 0.012 0.246 0.176 0.422 0.388 0.419 0.212-2e-3 0.379-0.179 0.38-0.426 4e-3 -0.89 2e-3 -1.778 2e-3 -2.667 1e-3 -0.694 0-1.387 0-2.08z" fill="#fff"/></g><g transform="translate(43.751 32.462)"><path d="m0 0c0 1.55 1e-3 3.099-1e-3 4.648-1e-3 0.205 0.045 0.378 0.248 0.459 0.274 0.11 0.521-0.089 0.522-0.422 3e-3 -0.914 2e-3 -1.827 2e-3 -2.741 0-2.152 0-4.306-1e-3 -6.459 0-0.057 1e-3 -0.114 0-0.171-5e-3 -0.282-0.165-0.472-0.392-0.465-0.228 6e-3 -0.378 0.193-0.378 0.478-1e-3 1.558-1e-3 3.115-1e-3 4.673z" fill="#fff"/></g><g transform="translate(29.057 32.49)"><path d="m0 0v4.647c0 0.301 0.139 0.475 0.372 0.476 0.231 2e-3 0.378-0.178 0.378-0.472 1e-3 -3.114 1e-3 -6.229 0-9.344 0-0.293-0.104-0.436-0.324-0.465-0.254-0.032-0.426 0.14-0.427 0.437-1e-3 0.994 0 1.99 0 2.984v1.737z" fill="#fff"/></g><g transform="translate(36.405 32.959)"><path d="m0 0c0 1.386-1e-3 2.773 3e-3 4.159 0 0.11 0.01 0.251 0.076 0.319 0.086 0.088 0.244 0.176 0.349 0.155 0.117-0.023 0.247-0.151 0.303-0.266s0.035-0.271 0.035-0.409c2e-3 -2.65 2e-3 -5.301 1e-3 -7.952 0-0.081 4e-3 -0.163-4e-3 -0.244-0.021-0.241-0.175-0.393-0.387-0.391-0.224 2e-3 -0.373 0.162-0.374 0.421-3e-3 0.832-2e-3 1.664-2e-3 2.495v1.713" fill="#fff"/></g><g transform="translate(38.998 32.968)"><path d="m0 0c0-1.387 4e-3 -2.773-6e-3 -4.159-1e-3 -0.133-0.053-0.303-0.144-0.385-0.081-0.072-0.284-0.102-0.372-0.048-0.111 0.066-0.215 0.232-0.224 0.362-0.029 0.406-0.014 0.814-0.014 1.222v7.046c0 0.073-1e-3 0.147 6e-3 0.22 0.022 0.235 0.186 0.395 0.391 0.386 0.213-9e-3 0.359-0.17 0.361-0.412 3e-3 -0.514 2e-3 -1.027 2e-3 -1.541z" fill="#fff"/></g><g transform="translate(32.732 32.978)"><path d="m0 0v4.134c0 0.316 0.136 0.5 0.372 0.502 0.234 2e-3 0.386-0.185 0.387-0.495 2e-3 -1.689 0-3.377 0-5.065-1e-3 -1.06-1e-3 -2.12-3e-3 -3.18 0-0.089 1e-3 -0.182-0.023-0.267-0.055-0.199-0.201-0.3-0.403-0.273-0.213 0.029-0.33 0.164-0.33 0.387 0 0.563 0 1.125-1e-3 1.688v2.569z" fill="#fff"/></g><g transform="translate(42.559 32.466)"><path d="m0 0v-4.573c0-0.081 0.02-0.18-0.02-0.239-0.056-0.084-0.158-0.189-0.24-0.189-0.083 0-0.19 0.104-0.242 0.189-0.041 0.066-0.019 0.174-0.019 0.263v9.146c0 0.049-2e-3 0.098 2e-3 0.147 0.014 0.157 0.09 0.266 0.258 0.267 0.17 0 0.252-0.111 0.258-0.267 9e-3 -0.277 4e-3 -0.554 4e-3 -0.831 1e-3 -1.304 0-2.609 0-3.913z" fill="#fff"/></g><g transform="translate(31.019 32.974)"><path d="m0 0c0 1.378-3e-3 2.757 5e-3 4.135 1e-3 0.115 0.051 0.268 0.133 0.333 0.166 0.131 0.36-0.023 0.362-0.281 4e-3 -0.678 2e-3 -1.354 2e-3 -2.031-1e-3 -2.08-2e-3 -4.16-2e-3 -6.24 0-0.032-1e-3 -0.065 0-0.098 6e-3 -0.184-0.045-0.336-0.263-0.329-0.201 7e-3 -0.24 0.151-0.239 0.327 3e-3 0.628 1e-3 1.256 1e-3 1.884v2.3z" fill="#fff"/></g><g transform="translate(34.691 32.975)"><path d="m0 0c0 1.387 1e-3 2.773-1e-3 4.16 0 0.184 0.038 0.339 0.252 0.342 0.221 3e-3 0.257-0.161 0.257-0.339 1e-3 -0.775 3e-3 -1.55 3e-3 -2.325v-5.776c0-0.105 1e-3 -0.211-6e-3 -0.317-0.011-0.162-0.094-0.265-0.263-0.257-0.168 7e-3 -0.241 0.114-0.241 0.278 0 0.563-1e-3 1.126-1e-3 1.689v2.545" fill="#fff"/></g><g transform="translate(40.711 32.953)"><path d="m0 0v-4.111c0-0.041 0.017-0.094-3e-3 -0.12-0.07-0.093-0.14-0.229-0.233-0.252-0.154-0.038-0.259 0.077-0.261 0.244-5e-3 0.424-5e-3 0.848-5e-3 1.273v6.998c0 0.05 2e-3 0.098 2e-3 0.147-4e-3 0.178 0.025 0.342 0.248 0.343 0.219 1e-3 0.254-0.154 0.253-0.337-3e-3 -0.555 0-1.109 0-1.664v-2.521z" fill="#fff"/></g><g transform="translate(45.668 26.106)"><path d="m0 0c0 0.511-1e-3 0.99 1e-3 1.469 0 0.097 2e-3 0.197 0.026 0.29 0.053 0.202 0.2 0.293 0.404 0.274 0.196-0.019 0.326-0.145 0.33-0.334 0.011-0.709 0.013-1.419-1e-3 -2.128-4e-3 -0.2-0.151-0.328-0.358-0.331-0.644-7e-3 -1.288-7e-3 -1.932-1e-3 -0.22 2e-3 -0.378 0.162-0.386 0.363-8e-3 0.202 0.156 0.385 0.386 0.393 0.35 0.012 0.701 5e-3 1.051 5e-3z" fill="#fff"/></g><g transform="translate(26.057 26.119)"><path d="m0 0c0.511 0 0.982-2e-3 1.453 1e-3 0.219 1e-3 0.383-0.08 0.452-0.295 0.074-0.229-0.115-0.472-0.385-0.476-0.626-8e-3 -1.253-7e-3 -1.88 0-0.265 3e-3 -0.403 0.162-0.404 0.445-3e-3 0.643-3e-3 1.286 0 1.929 1e-3 0.258 0.148 0.419 0.372 0.419 0.227 1e-3 0.384-0.149 0.39-0.41 0.01-0.423 2e-3 -0.846 2e-3 -1.269z" fill="#fff"/></g><g transform="translate(26.059 38.9)"><path d="m0 0c0-0.504 1e-3 -0.976 0-1.448-1e-3 -0.097 3e-3 -0.197-0.017-0.291-0.044-0.21-0.175-0.325-0.397-0.315-0.2 9e-3 -0.347 0.151-0.349 0.366-6e-3 0.692-8e-3 1.384 1e-3 2.076 3e-3 0.232 0.155 0.362 0.379 0.364 0.634 0.01 1.27 9e-3 1.904 1e-3 0.236-3e-3 0.399-0.175 0.397-0.378-3e-3 -0.22-0.169-0.372-0.424-0.374-0.487-3e-3 -0.974-1e-3 -1.494-1e-3" fill="#fff"/></g><g transform="translate(45.668 38.891)"><path d="m0 0h-1.341c-0.081 0-0.163-4e-3 -0.244 6e-3 -0.197 0.025-0.348 0.199-0.328 0.388 0.022 0.198 0.127 0.347 0.34 0.35 0.667 8e-3 1.334 9e-3 2.002-1e-3 0.213-3e-3 0.338-0.163 0.339-0.398 3e-3 -0.651 3e-3 -1.303 0-1.953-2e-3 -0.279-0.145-0.437-0.382-0.438-0.232-1e-3 -0.379 0.157-0.384 0.439-6e-3 0.439-2e-3 0.878-2e-3 1.318z" fill="#fff"/></g></g></svg>
