<?xml version="1.0" encoding="UTF-8"?>
<svg width="31.239" height="31.225" version="1.1" viewBox="0 0 31.239 31.225" xml:space="preserve" xmlns="http://www.w3.org/2000/svg"><g transform="matrix(1.3333 0 0 -1.3333 26.75 55.647)"><g transform="translate(2.3696,22.803)"><path d="m0 0c0 1.968-1.493 3.456-3.466 3.455-1.939-1e-3 -3.492-1.525-3.516-3.451-0.025-1.931 1.555-3.495 3.521-3.486 1.945 9e-3 3.461 1.533 3.461 3.482m-2.469 4.44c0.758 2.719 1.51 5.419 2.269 8.144h-21.09c1.218-4.336 2.426-8.637 3.628-12.917h9.622c0.472 3.596 1.892 4.821 5.571 4.773m-13.021 9.192h9.544c-0.395 0.694-0.755 1.33-1.118 1.966-0.159 0.276-0.325 0.548-0.482 0.826-0.164 0.29-0.31 0.544-0.697 0.648-0.492 0.133-0.703 0.678-0.556 1.165 0.151 0.498 0.575 0.748 1.117 0.659 0.485-0.08 0.83-0.475 0.746-0.989-0.066-0.411 0.077-0.709 0.267-1.033 0.531-0.9 1.066-1.798 1.559-2.72 0.218-0.41 0.47-0.572 0.951-0.559 1.435 0.037 2.873 0.016 4.309 0.012 0.835-3e-3 0.977-0.197 0.752-0.991-0.804-2.84-1.607-5.681-2.419-8.55 0.19-0.117 0.371-0.22 0.544-0.337 1.572-1.062 2.3-3.006 1.824-4.852-0.497-1.917-2.044-3.178-4.113-3.35-1.764-0.147-3.571 0.928-4.295 2.634-0.185 0.437-0.417 0.51-0.828 0.508-3.103-0.013-6.207 2e-3 -9.31-0.015-0.516-3e-3 -0.757 0.187-0.896 0.684-1.244 4.446-2.509 8.887-3.766 13.329-0.2 0.706-0.018 0.94 0.73 0.942 1.507 2e-3 3.015 9e-3 4.522-5e-3 0.317-3e-3 0.518 0.073 0.681 0.368 0.584 1.052 1.205 2.085 1.788 3.138 0.099 0.179 0.13 0.428 0.107 0.634-0.065 0.579 0.218 1.047 0.753 1.163 0.534 0.115 0.996-0.156 1.157-0.678 0.153-0.5-0.105-0.958-0.615-1.202-0.218-0.103-0.442-0.277-0.565-0.478-0.567-0.936-1.101-1.892-1.691-2.917" fill="#fff"/></g><g transform="translate(.83354 22.316)"><path d="m0 0v0.996h-1.476v1.437h-0.979v-1.477h-1.438v-0.979h1.478v-1.435h0.978v1.458z" fill="#fff"/></g><g transform="translate(-14.727,32.809)"><path d="m0 0c0.334 0.092 0.617 0.17 0.948 0.261 0.741-2.636 1.475-5.25 2.23-7.937-0.308-0.094-0.597-0.182-0.941-0.287-0.75 2.67-1.488 5.296-2.237 7.963" fill="#fff"/></g><path d="m-7.8966 24.986h-0.905v7.903h0.905z" fill="#fff"/><g transform="translate(-2.9487,33.056)"><path d="m0 0c0.338-0.094 0.623-0.174 0.947-0.265-0.497-1.767-0.982-3.495-1.479-5.262-0.322 0.091-0.604 0.172-0.942 0.269 0.493 1.757 0.977 3.485 1.474 5.258" fill="#fff"/></g><g transform="translate(.83354 22.316)"><path d="m0 0h-1.437v-1.458h-0.978v1.435h-1.478v0.979h1.438v1.477h0.979v-1.437h1.476z" fill="#fff"/></g></g></svg>
