<?xml version="1.0" encoding="UTF-8"?>
<svg width="27.914" height="28.962" version="1.1" viewBox="0 0 27.914 28.962" xml:space="preserve" xmlns="http://www.w3.org/2000/svg"><g transform="matrix(1.3333 0 0 -1.3333 -96.935 57.814)"><g transform="translate(73.887 33.474)"><path d="m0 0c0.398 0 0.757 0.014 1.114-3e-3 0.695-0.032 0.959-0.401 0.738-1.064-0.097-0.288-0.276-0.549-0.423-0.819-0.266-0.489-0.168-0.968 0.274-1.316 0.45-0.354 1.027-0.366 1.401 0.028 0.678 0.716 1.077 1.575 1.223 2.557 0.118 0.795 0.555 1.354 1.329 1.615 0.614 0.208 1.198 0.022 1.609-0.485 0.368-0.454 0.421-1.041 0.092-1.586-0.156-0.26-0.381-0.482-0.592-0.704-0.165-0.174-0.367-0.312-0.536-0.481-0.753-0.748-0.722-1.033 0.182-1.589 0.862-0.53 1.256-1.278 1.112-2.296-0.231-1.633-1.293-2.54-2.724-3.125-0.092-0.037-0.194-0.054-0.337-0.2 0.598-0.267 1.179-0.579 1.795-0.797 5.594-1.973 11.683 1.842 12.375 7.739 0.062 0.53 0.298 0.803 0.667 0.725 0.471-0.099 0.481-0.451 0.43-0.843-0.603-4.621-4.005-8.212-8.557-9.025-4.527-0.809-9.017 1.398-11.177 5.493-3.27 6.199 0.586 14.025 7.448 15.116 0.186 0.03 0.397 0.112 0.556 0.056 0.21-0.076 0.473-0.227 0.545-0.411 0.109-0.279-0.054-0.535-0.384-0.607-0.184-0.04-0.371-0.062-0.557-0.093-3.848-0.636-6.994-3.815-7.602-7.683-8e-3 -0.05-1e-3 -0.101-1e-3 -0.202" fill="#fff"/></g><g transform="translate(89.531 38.318)"><path d="m0 0c-8e-3 0.987-0.818 1.799-1.8 1.805-1 6e-3 -1.825-0.829-1.818-1.838 8e-3 -0.99 0.812-1.795 1.801-1.801 1.005-7e-3 1.825 0.821 1.817 1.834m-1.801 5.043c3.497-0.02 5.891-3.448 4.766-6.886-0.759-2.323-2.184-4.262-3.726-6.114-0.535-0.643-1.571-0.633-2.107 0.015-1.571 1.894-3.01 3.877-3.756 6.268-0.95 3.048 0.987 6.187 4.106 6.659 0.237 0.036 0.478 0.04 0.717 0.058" fill="#fff"/></g></g></svg>
