<?xml version="1.0" encoding="UTF-8"?>
<svg width="20.91" height="28.109" version="1.1" viewBox="0 0 20.91 28.109" xml:space="preserve" xmlns="http://www.w3.org/2000/svg"><g transform="matrix(1.3333 0 0 -1.3333 -33.1 57.388)"><g transform="translate(35.742 42.371)"><path d="m0 0c-1.977 0-3.895 6e-3 -5.812-0.014-0.113-1e-3 -0.314-0.2-0.321-0.317-0.035-0.542-0.015-1.087-0.015-1.645h6.148zm4.064-19.729v18.503h-3.39c0-0.325-0.012-0.607 4e-3 -0.889 0.019-0.351-0.106-0.543-0.483-0.542-2.17 4e-3 -4.34 6e-3 -6.509 2e-3 -0.375-1e-3 -0.509 0.189-0.501 0.536 7e-3 0.296 2e-3 0.593 2e-3 0.892h-3.393v-18.502zm-10.948 19.183c0.194 1.216 0.194 1.216 1.389 1.216h5.223c0.913 0 0.912-1e-3 0.946-0.889 3e-3 -0.08 0.021-0.159 0.045-0.327h3.235c0.809-1e-3 0.811-2e-3 0.811-0.817 1e-3 -6.042 1e-3 -12.084-1e-3 -18.126 0-0.921-7e-3 -0.922-0.909-0.922-4.628-1e-3 -9.257-1e-3 -13.886 0-0.863 0-0.872 6e-3 -0.873 0.841-2e-3 6.104 6e-3 12.207-0.013 18.311-1e-3 0.575 0.183 0.744 0.745 0.724 1.099-0.039 2.201-0.011 3.288-0.011" fill="#fff"/></g><path d="m29.726 26.381h-2.018v-2.039h2.018zm0.685-1.045c-9.98e-4 -1.707-9.98e-4 -1.707-1.721-1.707-1.71 0-1.71 0-1.708 1.726 9.97e-4 1.719 9.97e-4 1.719 1.701 1.719 0.428-9.75e-4 0.863 0.037 1.283-0.025 0.166-0.025 0.4-0.263 0.424-0.429 0.061-0.42 0.02-0.855 0.021-1.284" fill="#fff"/><g transform="translate(27.888 35.83)"><path d="m0 0c0.717 0.73 1.358 1.415 2.041 2.055 0.161 0.151 0.462 0.153 0.698 0.223-0.071-0.218-0.081-0.495-0.223-0.647-0.7-0.743-1.443-1.445-2.154-2.178-0.364-0.375-0.637-0.389-0.888 0.107-0.175 0.345-0.408 0.664-0.558 1.018-0.06 0.141 0.034 0.346 0.058 0.522 0.167-0.069 0.386-0.095 0.49-0.218 0.194-0.23 0.321-0.516 0.536-0.882" fill="#fff"/></g><g transform="translate(27.882 30.509)"><path d="m0 0c0.714 0.724 1.372 1.417 2.065 2.07 0.155 0.146 0.438 0.154 0.663 0.225-0.062-0.22-0.058-0.502-0.196-0.649-0.713-0.759-1.47-1.474-2.194-2.221-0.351-0.362-0.604-0.353-0.841 0.106-0.187 0.362-0.424 0.699-0.592 1.069-0.057 0.126 0.03 0.317 0.05 0.479 0.171-0.056 0.404-0.06 0.502-0.177 0.203-0.243 0.335-0.546 0.543-0.902" fill="#fff"/></g><g transform="translate(35.741 36.271)"><path d="m0 0c-0.755 0-1.511-0.022-2.264 0.016-0.18 9e-3 -0.35 0.217-0.525 0.334 0.17 0.103 0.338 0.293 0.51 0.296 1.55 0.021 3.101 0.022 4.651-5e-3 0.178-4e-3 0.353-0.219 0.528-0.336-0.171-0.1-0.338-0.281-0.514-0.287-0.794-0.032-1.591-0.014-2.386-0.014z" fill="#fff"/></g><g transform="translate(35.79 30.96)"><path d="m0 0c-0.776 0-1.553-0.018-2.328 0.014-0.173 7e-3 -0.339 0.188-0.508 0.289 0.174 0.115 0.347 0.327 0.523 0.33 1.532 0.026 3.064 0.024 4.596-1e-3 0.192-3e-3 0.382-0.19 0.573-0.291-0.196-0.114-0.388-0.317-0.589-0.328-0.754-0.039-1.511-0.015-2.267-0.015z" fill="#fff"/></g><g transform="translate(35.854 25.047)"><path d="m0 0c-0.796 0-1.593-0.018-2.388 0.014-0.174 7e-3 -0.341 0.187-0.51 0.288 0.176 0.115 0.351 0.327 0.529 0.33 1.551 0.028 3.103 0.027 4.654 5e-3 0.171-2e-3 0.34-0.192 0.509-0.295-0.175-0.115-0.347-0.321-0.529-0.33-0.753-0.037-1.51-0.015-2.265-0.015z" fill="#fff"/></g></g></svg>
