<?xml version="1.0" encoding="UTF-8"?>
<svg width="33.032" height="33.042" version="1.1" viewBox="0 0 33.032 33.042" xml:space="preserve" xmlns="http://www.w3.org/2000/svg"><g transform="matrix(1.3333 0 0 -1.3333 -75.146 68.244)"><g transform="translate(73.587 38.728)"><path d="m0 0c8e-3 2.711-2.107 4.871-4.781 4.885-2.714 0.013-4.887-2.097-4.905-4.764-0.019-2.751 2.105-4.919 4.824-4.922 2.703-4e-3 4.854 2.12 4.862 4.801m0.96 0.019c-6e-3 -3.211-2.588-5.782-5.806-5.781-3.21 1e-3 -5.8 2.586-5.8 5.787 0 3.252 2.593 5.832 5.848 5.82 3.201-0.012 5.765-2.607 5.758-5.826" fill="#fff"/></g><g transform="translate(76.001 30.965)"><path d="m0 0c-0.708 0.667-1.44 1.31-2.105 2.017-0.182 0.193-0.161 0.577-0.233 0.873 0.297-0.075 0.68-0.058 0.875-0.242 0.708-0.662 1.353-1.391 2.021-2.095 0.071 0.03 0.142 0.061 0.213 0.093 0 0.352-0.057 0.718 0.021 1.053 0.047 0.197 0.307 0.346 0.47 0.516 0.155-0.174 0.43-0.339 0.443-0.523 0.05-0.762 0.061-1.534-5e-3 -2.295-0.018-0.207-0.345-0.532-0.553-0.55-0.76-0.066-1.532-0.055-2.295-4e-3 -0.181 0.011-0.344 0.291-0.515 0.446 0.17 0.164 0.317 0.422 0.516 0.471 0.32 0.08 0.675 0.021 1.015 0.021 0.044 0.073 0.088 0.147 0.132 0.219" fill="#fff"/></g><g transform="translate(60.707 45.883)"><path d="m0 0c0-0.369 0.051-0.749-0.022-1.104-0.035-0.166-0.31-0.39-0.474-0.388-0.15 1e-3 -0.418 0.265-0.426 0.425-0.044 0.817-0.055 1.639 5e-3 2.455 0.013 0.174 0.358 0.445 0.567 0.461 0.736 0.056 1.481 0.056 2.217 0 0.203-0.016 0.387-0.303 0.579-0.465-0.202-0.159-0.384-0.395-0.613-0.458-0.289-0.079-0.617-0.019-0.927-0.019-0.049-0.063-0.096-0.127-0.144-0.19 0.643-0.603 1.295-1.196 1.925-1.811 0.305-0.297 0.854-0.654 0.395-1.089-0.449-0.423-0.79 0.147-1.09 0.444-0.614 0.605-1.205 1.233-1.806 1.851-0.062-0.037-0.124-0.075-0.186-0.112" fill="#fff"/></g><g transform="translate(76.572 45.989)"><path d="m0 0c-0.659-0.683-1.294-1.39-1.99-2.031-0.204-0.189-0.581-0.189-0.879-0.276 0.074 0.315 0.049 0.717 0.239 0.927 0.633 0.701 1.342 1.333 1.973 2.183-0.347 0-0.713-0.066-1.035 0.022-0.213 0.059-0.364 0.34-0.543 0.521 0.188 0.139 0.37 0.386 0.566 0.399 0.735 0.048 1.475 0.013 2.213 0.023 0.435 5e-3 0.621-0.196 0.615-0.623-0.01-0.739 0.026-1.478-0.023-2.213-0.012-0.196-0.261-0.376-0.402-0.564-0.179 0.183-0.456 0.337-0.514 0.552-0.088 0.322-0.023 0.686-0.023 1.032-0.066 0.016-0.132 0.032-0.197 0.048" fill="#fff"/></g><g transform="translate(60.911 31.551)"><path d="m0 0c0.659 0.681 1.292 1.39 1.995 2.022 0.21 0.189 0.612 0.164 0.927 0.236-0.088-0.297-0.089-0.672-0.277-0.878-0.637-0.7-1.34-1.341-2.204-2.187 0.566 0 0.93 0.066 1.252-0.022 0.215-0.059 0.37-0.335 0.553-0.514-0.187-0.14-0.367-0.39-0.562-0.403-0.735-0.048-1.476-0.013-2.214-0.023-0.428-5e-3 -0.63 0.179-0.624 0.615 0.01 0.738-0.026 1.479 0.023 2.215 0.012 0.196 0.259 0.376 0.399 0.564 0.181-0.179 0.459-0.329 0.52-0.543 0.09-0.309 0.023-0.663 0.023-0.998 0.063-0.028 0.126-0.056 0.189-0.084" fill="#fff"/></g><g transform="translate(57.859 37.995)"><path d="m0 0c0.285-0.189 0.628-0.331 0.832-0.586 0.132-0.165 0.06-0.494 0.08-0.75-0.24 0.024-0.558-0.041-0.705 0.088-0.575 0.505-1.129 1.043-1.615 1.631-0.134 0.163-0.117 0.636 0.023 0.806 0.468 0.569 1.002 1.092 1.562 1.571 0.163 0.139 0.502 0.072 0.76 0.098-0.036-0.254 0.011-0.58-0.128-0.751-0.206-0.25-0.545-0.389-0.827-0.577 0.067-0.099 0.135-0.198 0.203-0.298 0.992 0 1.985 0.033 2.975-0.02 0.27-0.015 0.528-0.281 0.791-0.432-0.259-0.154-0.511-0.428-0.777-0.443-0.99-0.053-1.984-0.021-2.976-0.021z" fill="#fff"/></g><g transform="translate(68.023 49.6)"><path d="m0 0c-0.229-0.287-0.425-0.612-0.701-0.843-0.136-0.113-0.419-0.05-0.636-0.066-8e-3 0.238-0.122 0.568-8e-3 0.699 0.538 0.613 1.115 1.198 1.735 1.729 0.137 0.117 0.585 0.065 0.749-0.075 0.561-0.475 1.086-1.003 1.564-1.562 0.14-0.164 0.079-0.501 0.11-0.759-0.255 0.032-0.562-0.013-0.753 0.114-0.268 0.18-0.451 0.489-0.67 0.742-0.07-0.036-0.14-0.072-0.21-0.107v-2.493c0-0.211 0.053-0.442-0.016-0.627-0.089-0.235-0.278-0.433-0.423-0.646-0.158 0.227-0.441 0.448-0.453 0.682-0.05 1.018-0.021 2.039-0.021 3.06z" fill="#fff"/></g><g transform="translate(79.629 39.228)"><path d="m0 0c-0.41 0.429-0.702 0.667-0.899 0.967-0.103 0.158-0.042 0.424-0.055 0.64 0.238 4e-3 0.565 0.109 0.699-7e-3 0.595-0.518 1.167-1.073 1.672-1.677 0.133-0.158 0.109-0.631-0.033-0.803-0.468-0.567-0.999-1.089-1.558-1.567-0.163-0.139-0.502-0.071-0.76-0.098 0.036 0.257-7e-3 0.566 0.124 0.755 0.183 0.264 0.495 0.437 0.751 0.649-0.044 0.076-0.087 0.15-0.13 0.225-0.991 0-1.982-0.032-2.97 0.02-0.27 0.014-0.527 0.278-0.789 0.427 0.257 0.157 0.507 0.433 0.771 0.448 0.99 0.053 1.985 0.021 3.177 0.021" fill="#fff"/></g><g transform="translate(68.289 27.889)"><path d="m0 0c0 1.205-0.033 2.203 0.022 3.196 0.015 0.256 0.303 0.497 0.466 0.744 0.142-0.242 0.394-0.48 0.406-0.729 0.047-0.997 0.02-1.997 0.02-3.205 0.389 0.37 0.63 0.671 0.938 0.862 0.176 0.111 0.463 0.042 0.7 0.054-0.015-0.239 0.064-0.56-0.06-0.703-0.502-0.575-1.035-1.134-1.627-1.613-0.174-0.141-0.671-0.115-0.86 0.036-0.552 0.442-1.052 0.962-1.512 1.503-0.146 0.17-0.103 0.501-0.146 0.76 0.274-0.038 0.584-9e-3 0.814-0.131 0.265-0.139 0.461-0.413 0.839-0.774" fill="#fff"/></g></g></svg>
