<?xml version="1.0" encoding="UTF-8"?>
<svg width="48.788" height="61.336" version="1.1" viewBox="0 0 48.788 61.336" xml:space="preserve"
     xmlns="http://www.w3.org/2000/svg"><g transform="matrix(1.3333 0 0 -1.3333 -625.22 1094.2)"><g transform="translate(501.78 811.36)"><path d="m0 0c-1.856 1.871-3.751 3.779-5.555 5.597v-5.597zm-30.965-34.767h32.768v32.839c-2.695 0-5.314-6e-3 -7.933 3e-3 -1.104 4e-3 -1.377 0.283-1.385 1.393-9e-3 1.294-3e-3 2.588-3e-3 3.883v4.064h-23.447zm34.08-1.913h-35.371c-0.204 0.47-0.585 0.94-0.586 1.41-0.032 14.395-0.032 28.789 0 43.183 1e-3 0.47 0.382 0.94 0.586 1.409h25.965c3.208-3.19 6.426-6.37 9.606-9.587 0.267-0.27 0.394-0.791 0.394-1.195 0.021-11.27 0.024-22.539-9e-3 -33.808-1e-3 -0.471-0.382-0.941-0.585-1.412" fill="#fff"/></g><g fill="#fff"><path d="m489.15 806.5h12.046v-1.684h-12.046z"/><path d="m501.19 797.28h-12.01v1.705h12.01z"/><path d="m501.21 789.84h-12.018v1.649h12.018z"/><path d="m489.17 784.01h12.024v-1.712h-12.024z"/><path d="m483.03 803.66h10.189v-1.681h-10.189z"/><path d="m493.23 786.99h-10.16v1.697h10.16z"/><path d="m493.23 779.45h-10.147v1.717h10.147z"/></g><g transform="translate(472.92 796.5)"><path d="m0 0c0.509 0.518 0.886 0.901 1.378 1.401 0.508-0.649 0.982-1.256 1.536-1.964 1.479 1.542 2.745 2.863 4.075 4.251 0.395-0.523 0.736-0.973 1.096-1.449-1.364-1.39-2.889-2.973-4.452-4.518-0.485-0.48-0.994-0.254-1.433 0.171-0.706 0.683-1.418 1.36-2.2 2.108" fill="#fff"/></g><g transform="translate(481.22 783.79)"><path d="m0 0c-1.5-1.49-2.976-2.946-4.44-4.413-0.572-0.573-1.109-0.56-1.672 7e-3 -0.693 0.699-1.399 1.386-2.136 2.114 0.471 0.405 0.898 0.774 1.432 1.234 0.39-0.5 0.845-1.082 1.361-1.742 1.477 1.555 2.753 2.899 4.021 4.235 0.559-0.56 0.955-0.955 1.434-1.435" fill="#fff"/></g><g transform="translate(479.8 807.72)"><path d="m0 0c0.61-0.538 1.013-0.893 1.482-1.307-1.601-1.598-3.128-3.141-4.679-4.661-0.478-0.468-0.978-0.361-1.437 0.09-0.727 0.714-1.463 1.42-2.257 2.19 0.466 0.456 0.873 0.855 1.38 1.351 0.506-0.616 0.974-1.186 1.554-1.892 1.432 1.531 2.697 2.883 3.957 4.229" fill="#fff"/></g><g transform="translate(479.88 792.69)"><path d="m0 0c0.54-0.493 0.938-0.856 1.404-1.28-1.595-1.595-3.118-3.141-4.669-4.658-0.474-0.464-0.985-0.341-1.446 0.092-0.742 0.7-1.49 1.393-2.158 2.017 0.484 0.546 0.857 0.967 1.265 1.427 0.566-0.538 1.102-1.047 1.686-1.602 1.319 1.348 2.601 2.658 3.918 4.004" fill="#fff"/></g><g fill="#fff"><path d="m493.23 794.54h-10.156v1.643h10.156z"/><path d="m482.94 811.89h-9.697v1.643h9.697z"/><path d="m487.64 804.83h-4.572v1.707h4.572z"/><path d="m483.05 798.99h4.544v-1.68h-4.544z"/><path d="m483.06 784.01h4.558v-1.706h-4.558z"/><path d="m487.62 789.84h-4.529v1.627h4.529z"/><path d="m477.73 814.65h-4.473v1.714h4.473z"/></g></g></svg>
