<?xml version="1.0" encoding="UTF-8"?>
<svg width="24.392" height="24.501" version="1.1" viewBox="0 0 24.392 24.501" xml:space="preserve" xmlns="http://www.w3.org/2000/svg"><g transform="matrix(1.3333 0 0 -1.3333 -25.582 91.139)"><g transform="translate(28.299 50.607)"><path d="m0 0h7.227c0.807 0 1.373 0.569 1.373 1.378v14.372c0 0.795-0.579 1.392-1.37 1.393-4.736 9e-3 -9.473 0-14.209 0.034-0.821 6e-3 -1.559-0.697-1.552-1.566 0.038-4.763 0.033-9.526 0.045-14.29 2e-3 -0.754 0.577-1.321 1.341-1.321 2.382-1e-3 4.763 0 7.145 0m9.181 16.685v-16.252c-0.04-0.048-0.09-0.092-0.117-0.146-0.293-0.579-0.737-0.899-1.41-0.861-0.143 9e-3 -0.289-0.035-0.433-0.054h-14.537c-0.119 0.019-0.237 0.048-0.356 0.056-0.836 0.056-1.339 0.561-1.381 1.385-9e-3 0.173-0.039 0.346-0.06 0.519v11.923c0.017 1.016 0.036 2.032 0.05 3.048 0.01 0.769 0.583 1.361 1.346 1.39 0.243 9e-3 0.485 0.036 0.728 0.054h15.108c0.45-0.258 0.823-0.593 1.062-1.062" fill="#fff"/></g><g transform="translate(21.31 68.354)"><path d="m0 0c-0.243-0.018-0.485-0.044-0.728-0.054-0.763-0.029-1.335-0.62-1.346-1.389-0.014-1.016-0.033-2.033-0.05-3.049v4.492z" fill="#fff"/></g><g transform="translate(19.187 51.939)"><path d="m0 0c0.021-0.173 0.051-0.345 0.06-0.519 0.042-0.824 0.545-1.329 1.38-1.384 0.12-8e-3 0.238-0.037 0.357-0.057h-1.797z" fill="#fff"/></g><g transform="translate(35.52 49.979)"><path d="m0 0c0.145 0.02 0.291 0.063 0.433 0.055 0.673-0.038 1.118 0.281 1.41 0.86 0.028 0.055 0.077 0.098 0.117 0.147v-1.062z" fill="#fff"/></g><g transform="translate(37.48 67.292)"><path d="m0 0c-0.239 0.469-0.611 0.804-1.062 1.062h1.062z" fill="#fff"/></g><g transform="translate(28.363 62.64)"><path d="m0 0c1.333 0 2.666 2e-3 3.999-2e-3 0.408-1e-3 0.639-0.179 0.615-0.481-0.029-0.357-0.275-0.475-0.596-0.475-2.693-1e-3 -5.387-2e-3 -8.08 1e-3 -0.321 0-0.578 0.123-0.564 0.492 0.012 0.357 0.252 0.47 0.586 0.468 1.347-6e-3 2.693-3e-3 4.04-3e-3" fill="#fff"/></g><g transform="translate(28.291 55.695)"><path d="m0 0h-3.754c-0.108 0-0.218-2e-3 -0.326 6e-3 -0.283 0.022-0.462 0.171-0.476 0.459-0.013 0.289 0.152 0.455 0.435 0.492 0.148 0.019 0.298 0.023 0.448 0.023 2.488 1e-3 4.977 1e-3 7.466-1e-3 0.163 0 0.354 0.034 0.481-0.039 0.166-0.095 0.402-0.292 0.39-0.424-0.018-0.178-0.223-0.362-0.389-0.49-0.088-0.068-0.263-0.025-0.399-0.026h-3.876" fill="#fff"/></g><g transform="translate(28.332 58.701)"><path d="m0 0c-1.279-1e-3 -2.558-1e-3 -3.836 0-0.109 0-0.218 6e-3 -0.327 0.01-0.287 8e-3 -0.425 0.185-0.432 0.443-9e-3 0.275 0.123 0.472 0.434 0.477 0.871 0.015 1.741 0.042 2.612 0.04 1.89-3e-3 3.781-0.013 5.672-0.048 0.169-4e-3 0.402-0.17 0.482-0.324 0.058-0.112-0.052-0.36-0.158-0.489-0.072-0.088-0.267-0.104-0.406-0.104-1.347-7e-3 -2.694-5e-3 -4.041-5e-3" fill="#fff"/></g></g></svg>
