<?xml version="1.0" encoding="UTF-8"?>
<svg width="28.752" height="15.967" version="1.1" viewBox="0 0 28.752 15.967" xml:space="preserve" xmlns="http://www.w3.org/2000/svg"><g transform="matrix(1.3333 0 0 -1.3333 -97.263 51.317)"><g transform="translate(83.672 27.459)"><path d="m0 0c1.63 0 3.261-0.013 4.892 2e-3 2.75 0.026 5 2.302 4.996 5.036-3e-3 2.744-2.237 5.021-4.991 5.038-3.208 0.022-6.416 0.022-9.624 1e-3 -2.827-0.018-5.065-2.292-5.051-5.087 0.014-2.747 2.293-4.98 5.099-4.991 1.559-5e-3 3.119-1e-3 4.679 1e-3m0.056 10.966c1.844 0 3.696 0.112 5.529-0.027 2.886-0.217 5.037-2.646 5.243-5.699 0.18-2.678-1.848-5.374-4.538-5.996-0.497-0.115-1.017-0.176-1.526-0.178-3.139-0.016-6.28-0.015-9.419-6e-3 -3.367 0.01-5.979 2.564-6.068 5.916-0.086 3.243 2.615 6.003 5.937 6.043 1.614 0.02 3.228 3e-3 4.842 3e-3z" fill="#fff"/></g><g transform="translate(82.521 32.473)"><path d="m0 0c0.012 1.997-1.547 3.589-3.543 3.619-1.977 0.03-3.608-1.562-3.626-3.539-0.019-2.022 1.558-3.632 3.572-3.646 1.98-0.015 3.585 1.577 3.597 3.566m-3.588-4.508c-2.509-3e-3 -4.532 2.019-4.531 4.527 1e-3 2.541 2.017 4.546 4.567 4.542 2.48-5e-3 4.503-2.026 4.503-4.499 1e-3 -2.555-1.998-4.568-4.539-4.57" fill="#fff"/></g></g></svg>
