<?xml version="1.0" encoding="UTF-8"?>
<svg width="25.053" height="24.602" version="1.1" viewBox="0 0 25.053 24.602" xml:space="preserve" xmlns="http://www.w3.org/2000/svg"><g transform="matrix(1.3333 0 0 -1.3333 -43.538 55.634)"><g transform="translate(33.427 31.044)"><path d="m0 0v-0.456c0-1.74-1e-3 -3.479 1e-3 -5.218 2e-3 -0.985 0.35-1.335 1.327-1.336 4.899-1e-3 9.797-1e-3 14.694 0 0.841 0 1.231 0.385 1.232 1.221 2e-3 1.795 0 3.59 0 5.386v0.386h-4.735v-1.201c-2e-3 -1.124-0.732-1.864-1.847-1.866-1.336-3e-3 -2.672-1e-3 -4.008 1e-3 -1.152 1e-3 -1.874 0.715-1.888 1.867-5e-3 0.399-1e-3 0.797-1e-3 1.216zm-0.773 0.582c1.021 1.172 2.066 2.325 3.052 3.526 0.392 0.477 0.792 0.682 1.413 0.65 1.056-0.053 2.116-5e-3 3.173-0.023 0.173-3e-3 0.404-0.077 0.502-0.201 0.2-0.251-0.023-0.544-0.41-0.547-1.113-8e-3 -2.228-0.013-3.34 2e-3 -0.291 4e-3 -0.488-0.079-0.678-0.305-0.785-0.936-1.588-1.856-2.451-2.858 0.22-0.014 0.36-0.03 0.5-0.03 1.308-2e-3 2.616 0 3.924-2e-3 0.538-1e-3 0.628-0.096 0.629-0.633 0-0.501-0.011-1.003 3e-3 -1.503 0.018-0.658 0.33-0.973 0.986-0.978 1.407-0.01 2.812-0.011 4.217-2e-3 0.678 4e-3 0.996 0.33 1.006 1.001 8e-3 0.515-1e-3 1.03 3e-3 1.545 5e-3 0.465 0.1 0.567 0.565 0.568 1.351 5e-3 2.7 2e-3 4.05 4e-3 0.106 0 0.21 0.018 0.39 0.035-0.756 0.88-1.498 1.686-2.168 2.548-0.374 0.481-0.78 0.651-1.378 0.618-0.944-0.052-1.892-0.013-2.838-0.014-0.261 0-0.537 4e-3 -0.546 0.355-0.01 0.366 0.262 0.406 0.548 0.406 1.211-1e-3 2.422 0.015 3.632-0.015 0.227-5e-3 0.511-0.142 0.663-0.312 1.129-1.265 2.231-2.554 3.342-3.835v-6.849c-0.253-0.748-0.75-1.254-1.503-1.503h-15.784c-0.772 0.272-1.281 0.793-1.502 1.587z" fill="#fff"/></g><g transform="translate(32.654 24.861)"><path d="m0 0c0.222-0.793 0.73-1.314 1.503-1.586h-1.503z" fill="#fff"/></g><g transform="translate(49.94 23.275)"><path d="m0 0c0.753 0.249 1.25 0.755 1.503 1.503v-1.503z" fill="#fff"/></g><g transform="translate(41.67 32.407)"><path d="m0 0v8.627c0 0.098-0.037 0.222 0.01 0.287 0.106 0.15 0.254 0.272 0.386 0.405 0.121-0.129 0.285-0.239 0.35-0.392 0.06-0.141 0.016-0.328 0.016-0.495v-8.462c0.411 0.41 0.738 0.738 1.065 1.065 0.247 0.246 0.473 0.519 0.75 0.723 0.118 0.087 0.342 0.031 0.519 0.04 6e-3 -0.187 0.018-0.374 0.012-0.56-2e-3 -0.041-0.071-0.081-0.111-0.12-0.747-0.747-1.5-1.49-2.24-2.245-0.259-0.265-0.48-0.277-0.741-0.01-0.752 0.763-1.511 1.519-2.27 2.275-0.201 0.2-0.316 0.418-0.082 0.647 0.221 0.215 0.431 0.094 0.615-0.092 0.442-0.444 0.884-0.887 1.327-1.328 0.104-0.103 0.215-0.199 0.394-0.365" fill="#fff"/></g></g></svg>
