<?xml version="1.0" encoding="UTF-8"?>
<svg width="30.096" height="30.097" version="1.1" viewBox="0 0 30.096 30.097" xml:space="preserve" xmlns="http://www.w3.org/2000/svg"><g transform="matrix(1.3333 0 0 -1.3333 -61.203 73.014)"><g transform="translate(67.426 43.491)"><path d="m0 0c-0.01 5.636-4.621 10.243-10.229 10.221-5.706-0.023-10.274-4.618-10.246-10.308 0.029-5.606 4.613-10.163 10.23-10.168 5.658-4e-3 10.255 4.598 10.245 10.255m-10.246 11.269c6.222 5e-3 11.307-5.083 11.295-11.304-0.011-6.203-5.075-11.263-11.278-11.269-6.221-6e-3 -11.306 5.084-11.294 11.304 0.011 6.206 5.073 11.263 11.277 11.269" fill="#fff"/></g><g transform="translate(59.291 44.244)"><path d="m0 0c1.243 1e-3 2.486-0.012 3.729 8e-3 0.384 7e-3 0.5-0.125 0.491-0.501-0.029-1.245 0.14-1.041-1.061-1.046-2.298-0.01-4.597 8e-3 -6.895-0.013-0.451-4e-3 -0.592 0.13-0.575 0.58 0.041 1.098-0.14 0.966 0.991 0.971 1.107 5e-3 2.214 1e-3 3.32 1e-3" fill="#fff"/></g><g transform="translate(59.237 48.424)"><path d="m0 0c1.245 0 2.49-0.012 3.735 8e-3 0.387 6e-3 0.553-0.088 0.541-0.511-0.032-1.253 0.118-1.028-1.024-1.035-2.302-0.014-4.605 6e-3 -6.907-0.015-0.467-4e-3 -0.624 0.129-0.603 0.61 0.043 0.995-0.126 0.947 0.932 0.944 1.109-3e-3 2.217-1e-3 3.326-1e-3" fill="#fff"/></g><g transform="translate(59.234 38.523)"><path d="m0 0c-1.228 0-2.457 0.012-3.684-7e-3 -0.407-6e-3 -0.587 0.099-0.57 0.545 0.044 1.154-0.15 0.998 1.013 1.003 2.303 0.01 4.605-9e-3 6.908 0.011 0.453 4e-3 0.64-0.099 0.615-0.59-0.054-1.081 0.14-0.955-0.956-0.961-1.109-7e-3 -2.217-2e-3 -3.326-1e-3" fill="#fff"/></g><g transform="translate(53.822 47.64)"><path d="m0 0c-0.046-0.466 0.067-1.084-0.187-1.352-0.226-0.237-0.861-0.099-1.316-0.103-1.456-0.011-1.463-6e-3 -1.446 1.468 5e-3 0.466-0.109 1.084 0.137 1.353 0.22 0.239 0.861 0.108 1.316 0.111 1.457 8e-3 1.457 3e-3 1.496-1.477" fill="#fff"/></g><g transform="translate(50.872 37.838)"><path d="M 0,0 C 0,0.921 -0.013,1.769 0.016,2.614 0.02,2.723 0.238,2.908 0.362,2.913 1.092,2.94 1.825,2.942 2.554,2.908 2.676,2.902 2.882,2.681 2.888,2.551 2.92,1.821 2.916,1.089 2.892,0.358 2.888,0.236 2.732,0.019 2.641,0.016 1.78,-0.011 0.917,0 0,0" fill="#fff"/></g><g transform="translate(50.87 43.504)"><path d="m0 0c-1e-3 1.452-1e-3 1.452 1.432 1.452 1.468-1e-3 1.469-1e-3 1.475-1.462 2e-3 -0.358-6e-3 -0.717 4e-3 -1.074 9e-3 -0.295-0.095-0.437-0.414-0.432-0.699 0.014-1.398 0.01-2.098 0-0.279-4e-3 -0.408 0.105-0.4 0.391 9e-3 0.375 2e-3 0.75 1e-3 1.125" fill="#fff"/></g></g></svg>
