<?xml version="1.0" encoding="UTF-8"?>
<svg width="519.14" height="224.23" version="1.1" viewBox="0 0 519.14 224.23" xml:space="preserve" xmlns="http://www.w3.org/2000/svg"><defs><linearGradient id="linearGradient434" x2="1" gradientTransform="matrix(24.359 0 0 -24.359 1284.1 559.79)" gradientUnits="userSpaceOnUse"><stop stop-color="#fff" offset="0"/><stop stop-color="#fff" stop-opacity="0" offset="1"/></linearGradient><linearGradient id="linearGradient452" x2="1" gradientTransform="matrix(24.359 0 0 -24.359 1284.1 559.79)" gradientUnits="userSpaceOnUse"><stop stop-color="#b3b3b3" offset="0"/><stop stop-color="#f6f6f6" offset="1"/></linearGradient><linearGradient id="linearGradient496" x2="1" gradientTransform="matrix(112.91 0 0 -112.91 1204 509.25)" gradientUnits="userSpaceOnUse"><stop stop-color="#fff" offset="0"/><stop stop-color="#fff" stop-opacity="0" offset="1"/></linearGradient><linearGradient id="linearGradient514" x2="1" gradientTransform="matrix(112.91 0 0 -112.91 1204 509.25)" gradientUnits="userSpaceOnUse"><stop stop-color="#b3b3b3" offset="0"/><stop stop-color="#f6f6f6" offset="1"/></linearGradient><linearGradient id="linearGradient554" x2="1" gradientTransform="matrix(93.006 0 0 -93.006 1106.3 536.54)" gradientUnits="userSpaceOnUse"><stop stop-color="#fff" offset="0"/><stop stop-color="#fff" stop-opacity="0" offset="1"/></linearGradient><linearGradient id="linearGradient572" x2="1" gradientTransform="matrix(93.006 0 0 -93.006 1106.3 536.54)" gradientUnits="userSpaceOnUse"><stop stop-color="#b3b3b3" offset="0"/><stop stop-color="#f6f6f6" offset="1"/></linearGradient><clipPath id="clipPath420-3"><path d="m1284 584.14h24.36v-48.718h-24.36z"/></clipPath><clipPath id="clipPath424-7"><path d="m1308.4 535.43c-13.453 0-24.359 10.906-24.359 24.359s10.906 24.359 24.359 24.359c0 0-31.541-23.921 0-48.718"/></clipPath><mask id="mask436-3" x="0" y="0" width="1" height="1" maskUnits="userSpaceOnUse"><g clip-path="url(#clipPath428-2)"><path d="m-32768 32767h65535v-65535h-65535z" fill="url(#linearGradient434)"/></g></mask><clipPath id="clipPath428-2"><path d="m-32768 32767h65535v-65535h-65535z"/></clipPath><clipPath id="clipPath482-0"><path d="m1204 538.66h112.9v-58.815h-112.9z"/></clipPath><clipPath id="clipPath486-2"><path d="m1204 538.66c0-22.013 12.233-41.406 30.406-51.487 8.6-4.771 18.738-7.328 29.155-7.328 24.239 0 44.353 14.741 53.346 35.726h-22.685c-7.106-9.639-17.794-15.907-30.661-15.907-21.502 0-59.561 17.494-59.561 38.996"/></clipPath><mask id="mask498-1" x="0" y="0" width="1" height="1" maskUnits="userSpaceOnUse"><g clip-path="url(#clipPath490-2)"><path d="m-32768 32767h65535v-65535h-65535z" fill="url(#linearGradient496)"/></g></mask><clipPath id="clipPath490-2"><path d="m-32768 32767h65535v-65535h-65535z"/></clipPath><clipPath id="clipPath540-2"><path d="m1106.3 593.24h93v-113.39h-93z"/></clipPath><clipPath id="clipPath544-9"><path d="m1199.3 479.85-31.101 41.87c7.802 1.415 14.522 5.202 20.013 11.293 6.23 6.907 9.496 15.215 9.708 24.71 0 0 5.794 62.203-91.626 21.977h45.549c8.38 0 16.915-2.479 20.765-6.035 3.957-3.636 6-8.27 6.247-14.201 0.323-6.407-1.841-11.567-6.619-15.775-4.907-4.326-11.788-6.519-20.452-6.519h-18.193z"/></clipPath><mask id="mask556-3" x="0" y="0" width="1" height="1" maskUnits="userSpaceOnUse"><g clip-path="url(#clipPath548-1)"><path d="m-32768 32767h65535v-65535h-65535z" fill="url(#linearGradient554)"/></g></mask><clipPath id="clipPath548-1"><path d="m-32768 32767h65535v-65535h-65535z"/></clipPath></defs><g transform="matrix(1.3333 0 0 -1.3333 -1002.5 876.52)"><g transform="translate(996.17 548.88)"><path d="m0 0c-7.106-9.639-18.533-15.907-31.4-15.907-21.503 0-38.996 17.494-38.996 38.996s17.493 38.996 38.996 38.996c4.237 0 8.315-0.689 12.139-1.945l12.874 16.164c-7.595 3.585-16.072 5.6-25.013 5.6-32.432 0-58.816-26.384-58.816-58.815s26.384-58.815 58.816-58.815c24.238 0 45.094 14.741 54.087 35.726z" fill="#fff"/></g><g transform="translate(808.25 613)"><path d="m0 0h45.549c8.38 0 16.915-2.479 20.764-6.035 3.958-3.636 6-8.27 6.248-14.2 0.323-6.408-1.841-11.568-6.62-15.776-4.907-4.326-11.788-6.518-20.452-6.518h-18.192l42.824-57.32h22.885l-31.102 41.869c7.802 1.415 14.523 5.203 20.014 11.294 6.229 6.906 9.495 15.214 9.708 24.709 0.21 11.562-3.759 21.205-11.795 28.663-7.378 6.844-20.787 11.095-34.998 11.095h-56.148l11.315-17.781" fill="#fff"/></g><g transform="translate(1034.7 593.09)"><path d="m0 0c0 13.453-10.906 24.359-24.359 24.359-13.454 0-24.359-10.906-24.359-24.359s10.905-24.359 24.359-24.359c13.453 0 24.359 10.906 24.359 24.359" fill="#fff"/></g><g transform="translate(-298.09 33.305)"><g clip-path="url(#clipPath420-3)" opacity=".5"><g clip-path="url(#clipPath424-7)"><g mask="url(#mask436-3)"><path d="m1308.4 535.43c-13.453 0-24.359 10.906-24.359 24.359s10.906 24.359 24.359 24.359c0 0-31.541-23.921 0-48.718" fill="url(#linearGradient452)"/></g></g></g></g><g transform="translate(1002.1 601.18)"><path d="m0 0c0.388 1.251 0.971 2.343 1.749 3.278 0.775 0.935 1.753 1.663 2.931 2.185 1.177 0.523 2.532 0.783 4.061 0.783 1.166 0 2.277-0.182 3.332-0.546 1.057-0.364 1.987-0.886 2.787-1.566 0.801-0.68 1.439-1.518 1.912-2.512 0.473-0.997 0.71-2.114 0.71-3.352 0-1.287-0.206-2.392-0.619-3.314-0.413-0.923-0.959-1.743-1.638-2.459-0.681-0.716-1.452-1.365-2.314-1.948-0.861-0.582-1.729-1.16-2.603-1.731-0.874-0.57-1.725-1.183-2.55-1.839-0.825-0.655-1.554-1.42-2.186-2.294h12.056v-4.443h-18.721c0 1.48 0.213 2.767 0.638 3.861 0.424 1.092 1.001 2.069 1.73 2.931s1.584 1.657 2.568 2.386c0.983 0.729 2.02 1.468 3.113 2.222 0.559 0.388 1.154 0.783 1.785 1.183 0.631 0.401 1.208 0.843 1.731 1.329 0.521 0.486 0.959 1.033 1.31 1.64 0.352 0.607 0.529 1.299 0.529 2.076 0 1.238-0.359 2.203-1.075 2.895-0.715 0.693-1.633 1.039-2.75 1.039-0.753 0-1.39-0.178-1.912-0.529-0.522-0.352-0.941-0.814-1.257-1.384-0.315-0.57-0.54-1.202-0.673-1.894s-0.201-1.378-0.201-2.057h-4.953c-0.049 1.456 0.121 2.81 0.51 4.06" fill="#ee3224"/></g><g transform="translate(-298.09 33.305)"><g clip-path="url(#clipPath482-0)" opacity=".5"><g clip-path="url(#clipPath486-2)"><g mask="url(#mask498-1)"><path d="m1204 538.66c0-22.013 12.233-41.406 30.406-51.487 8.6-4.771 18.738-7.328 29.155-7.328 24.239 0 44.353 14.741 53.346 35.726h-22.685c-7.106-9.639-17.794-15.907-30.661-15.907-21.502 0-59.561 17.494-59.561 38.996" fill="url(#linearGradient514)"/></g></g></g></g><g transform="translate(-298.09 33.305)"><g clip-path="url(#clipPath540-2)" opacity=".5"><g clip-path="url(#clipPath544-9)"><g mask="url(#mask556-3)"><path d="m1199.3 479.85-31.101 41.87c7.802 1.415 14.522 5.202 20.013 11.293 6.23 6.907 9.496 15.215 9.708 24.71 0 0 5.794 62.203-91.626 21.977h45.549c8.38 0 16.915-2.479 20.765-6.035 3.957-3.636 6-8.27 6.247-14.201 0.323-6.407-1.841-11.567-6.619-15.775-4.907-4.326-11.788-6.519-20.452-6.519h-18.193z" fill="url(#linearGradient572)"/></g></g></g></g><g transform="translate(1022.9 533.06)"><path d="m0 0h3.931c1.414 0 2.505-0.373 3.335-1.14 0.74-0.68 1.123-1.551 1.17-2.669 0.059-1.201-0.346-2.168-1.24-2.957-0.947-0.834-2.229-1.24-3.922-1.24h-3.274zm10.713-9.23c1.281 1.42 1.953 3.127 1.997 5.077v3e-3c0.043 2.377-0.773 4.36-2.427 5.894-1.629 1.509-3.813 2.275-6.495 2.275h-8.008v-23.928h4.22v10.797l8.067-10.797h5.152l-6.26 8.428c1.452 0.339 2.712 1.093 3.754 2.251" fill="#fff"/></g><g transform="translate(1041.1 535.44)"><path d="m0 0c-1.284-1.124-1.935-2.718-1.935-4.738v-11.168c0-2.021 0.651-3.616 1.935-4.738 1.246-1.09 2.837-1.642 4.73-1.642h7.294v4.019h-7.312c-1.187 0-1.595 0.278-1.697 0.38-0.541 0.566-0.817 1.105-0.817 1.599v4.085h7.37v4.077h-7.37v3.759c0 0.497 0.276 1.039 0.801 1.591 0.149 0.148 0.57 0.398 1.713 0.398h7.312v4.02h-7.294c-1.892 0-3.484-0.552-4.73-1.642" fill="#fff"/></g><g transform="translate(1060.8 517.62)"><path d="m0 0c-0.537 0.549-0.809 1.076-0.809 1.568v17.923h-4.133v-17.548c0-2.04 0.65-3.644 1.934-4.766 1.246-1.09 2.848-1.643 4.76-1.643h7.293v4.077h-7.312c-1.212 0-1.622 0.279-1.733 0.389" fill="#fff"/></g><path d="m1072.1 513.15h4.133v23.957h-4.133z" fill="#fff"/><g transform="translate(1082.2 535.44)"><path d="m0 0c-1.284-1.124-1.936-2.718-1.936-4.738v-11.168c0-2.021 0.652-3.616 1.936-4.738 1.245-1.09 2.836-1.642 4.729-1.642h7.294v4.019h-7.311c-1.187 0-1.595 0.278-1.697 0.38-0.542 0.566-0.817 1.105-0.817 1.599v4.085h7.369v4.077h-7.369v3.759c0 0.497 0.275 1.039 0.8 1.591 0.149 0.148 0.57 0.398 1.714 0.398h7.311v4.02h-7.294c-1.892 0-3.484-0.552-4.729-1.642" fill="#fff"/></g><g transform="translate(1101.9 532.66)"><path d="m0 0c0.149 0.149 0.57 0.399 1.714 0.399h7.311v4.019h-7.293c-1.893 0-3.485-0.552-4.73-1.642-1.284-1.124-1.935-2.718-1.935-4.738v-17.548h4.133v10.083h7.369v4.077h-7.369v3.759c0 0.498 0.276 1.039 0.8 1.591" fill="#fff"/></g><path d="m758.74 496.09h375.62v154.44h-375.62zm382.49-6.869h-389.36v168.17h389.36z" fill="#fff"/></g></svg>
