<?xml version="1.0" encoding="UTF-8" standalone="no"?>
<svg
        xmlns:dc="http://purl.org/dc/elements/1.1/"
        xmlns:cc="http://creativecommons.org/ns#"
        xmlns:rdf="http://www.w3.org/1999/02/22-rdf-syntax-ns#"
        xmlns="http://www.w3.org/2000/svg"
        xmlns:sodipodi="http://sodipodi.sourceforge.net/DTD/sodipodi-0.dtd"
        xmlns:inkscape="http://www.inkscape.org/namespaces/inkscape"
        viewBox="0 0 759.02795 593"
        height="593"
        width="759.02795"
        xml:space="preserve"
        id="svg2"
        version="1.1"
        sodipodi:docname="logo_removed (copy).svg"
        inkscape:version="0.92.4 (5da689c313, 2019-01-14)"><sodipodi:namedview
     pagecolor="#ffffff"
     bordercolor="#666666"
     borderopacity="1"
     objecttolerance="10"
     gridtolerance="10"
     guidetolerance="10"
     inkscape:pageopacity="0"
     inkscape:pageshadow="2"
     inkscape:window-width="2560"
     inkscape:window-height="1532"
     id="namedview261"
     showgrid="false"
     fit-margin-top="0"
     fit-margin-left="0"
     fit-margin-right="0"
     fit-margin-bottom="0"
     inkscape:zoom="0.3"
     inkscape:cx="47.329522"
     inkscape:cy="-363.89565"
     inkscape:window-x="0"
     inkscape:window-y="31"
     inkscape:window-maximized="1"
     inkscape:current-layer="svg2" /><metadata
     id="metadata8"><rdf:RDF><cc:Work
         rdf:about=""><dc:format>image/svg+xml</dc:format><dc:type
           rdf:resource="http://purl.org/dc/dcmitype/StillImage" /><dc:title></dc:title></cc:Work></rdf:RDF></metadata><defs
     id="defs6"><clipPath
       id="clipPath18"
       clipPathUnits="userSpaceOnUse"><path
         id="path16"
         d="M 0,1080 H 1920 V 0 H 0 Z"
         inkscape:connector-curvature="0" /></clipPath><clipPath
       id="clipPath206"
       clipPathUnits="userSpaceOnUse"><path
         id="path204"
         d="m 714.78,584.144 h 24.359 V 535.426 H 714.78 Z"
         inkscape:connector-curvature="0" /></clipPath><clipPath
       id="clipPath210"
       clipPathUnits="userSpaceOnUse"><path
         id="path208"
         d="m 739.139,535.426 c -13.453,0 -24.359,10.906 -24.359,24.359 0,13.453 10.906,24.359 24.359,24.359 0,0 -31.541,-23.921 0,-48.718"
         inkscape:connector-curvature="0" /></clipPath><clipPath
       id="clipPath214"
       clipPathUnits="userSpaceOnUse"><path
         id="path212"
         d="M -32768,32767 H 32767 V -32768 H -32768 Z"
         inkscape:connector-curvature="0" /></clipPath><linearGradient
       id="linearGradient220"
       spreadMethod="pad"
       gradientTransform="matrix(24.359177,0,0,-24.359177,714.78027,559.78516)"
       gradientUnits="userSpaceOnUse"
       y2="0"
       x2="1"
       y1="0"
       x1="0"><stop
         id="stop216"
         offset="0"
         style="stop-opacity:1;stop-color:#ffffff" /><stop
         id="stop218"
         offset="1"
         style="stop-opacity:0;stop-color:#ffffff" /></linearGradient><mask
       id="mask222"
       height="1"
       width="1"
       y="0"
       x="0"
       maskUnits="userSpaceOnUse"><g
         id="g232"><g
           id="g230"
           clip-path="url(#clipPath214)"><g
             id="g228"><g
               id="g226"><path
                 id="path224"
                 style="fill:url(#linearGradient220);stroke:none"
                 d="M -32768,32767 H 32767 V -32768 H -32768 Z"
                 inkscape:connector-curvature="0" /></g></g></g></g></mask><linearGradient
       id="linearGradient238"
       spreadMethod="pad"
       gradientTransform="matrix(24.359177,0,0,-24.359177,714.78027,559.78516)"
       gradientUnits="userSpaceOnUse"
       y2="0"
       x2="1"
       y1="0"
       x1="0"><stop
         id="stop234"
         offset="0"
         style="stop-opacity:1;stop-color:#7e3136" /><stop
         id="stop236"
         offset="1"
         style="stop-opacity:1;stop-color:#ed1c24" /></linearGradient><clipPath
       id="clipPath268"
       clipPathUnits="userSpaceOnUse"><path
         id="path266"
         d="M 634.766,538.661 H 747.673 V 479.846 H 634.766 Z"
         inkscape:connector-curvature="0" /></clipPath><clipPath
       id="clipPath272"
       clipPathUnits="userSpaceOnUse"><path
         id="path270"
         d="m 634.766,538.661 c 0,-32.431 27.131,-58.815 59.562,-58.815 24.239,0 44.352,14.741 53.345,35.726 h -22.684 c -7.107,-9.639 -17.794,-15.907 -30.661,-15.907 -21.502,0 -58.815,17.494 -58.815,38.996"
         inkscape:connector-curvature="0" /></clipPath><clipPath
       id="clipPath276"
       clipPathUnits="userSpaceOnUse"><path
         id="path274"
         d="M -32768,32767 H 32767 V -32768 H -32768 Z"
         inkscape:connector-curvature="0" /></clipPath><linearGradient
       id="linearGradient282"
       spreadMethod="pad"
       gradientTransform="matrix(112.90681,0,0,-112.90681,634.76617,509.25388)"
       gradientUnits="userSpaceOnUse"
       y2="0"
       x2="1"
       y1="0"
       x1="0"><stop
         id="stop278"
         offset="0"
         style="stop-opacity:1;stop-color:#ffffff" /><stop
         id="stop280"
         offset="1"
         style="stop-opacity:0;stop-color:#ffffff" /></linearGradient><mask
       id="mask284"
       height="1"
       width="1"
       y="0"
       x="0"
       maskUnits="userSpaceOnUse"><g
         id="g294"><g
           id="g292"
           clip-path="url(#clipPath276)"><g
             id="g290"><g
               id="g288"><path
                 id="path286"
                 style="fill:url(#linearGradient282);stroke:none"
                 d="M -32768,32767 H 32767 V -32768 H -32768 Z"
                 inkscape:connector-curvature="0" /></g></g></g></g></mask><linearGradient
       id="linearGradient300"
       spreadMethod="pad"
       gradientTransform="matrix(112.90681,0,0,-112.90681,634.76617,509.25388)"
       gradientUnits="userSpaceOnUse"
       y2="0"
       x2="1"
       y1="0"
       x1="0"><stop
         id="stop296"
         offset="0"
         style="stop-opacity:1;stop-color:#7e3136" /><stop
         id="stop298"
         offset="1"
         style="stop-opacity:1;stop-color:#ed1c24" /></linearGradient><clipPath
       id="clipPath326"
       clipPathUnits="userSpaceOnUse"><path
         id="path324"
         d="m 537.065,593.238 h 93.006 V 479.846 h -93.006 z"
         inkscape:connector-curvature="0" /></clipPath><clipPath
       id="clipPath330"
       clipPathUnits="userSpaceOnUse"><path
         id="path328"
         d="m 630.071,479.846 -31.103,41.87 c 7.803,1.415 14.524,5.202 20.015,11.293 6.229,6.907 9.495,15.215 9.708,24.71 0,0 5.794,62.203 -91.626,21.977 h 45.549 c 8.38,0 16.915,-2.479 20.764,-6.035 3.958,-3.636 6,-8.27 6.247,-14.201 0.324,-6.407 -1.84,-11.567 -6.619,-15.775 -4.907,-4.326 -11.788,-6.519 -20.452,-6.519 h -18.192 z"
         inkscape:connector-curvature="0" /></clipPath><clipPath
       id="clipPath334"
       clipPathUnits="userSpaceOnUse"><path
         id="path332"
         d="M -32768,32767 H 32767 V -32768 H -32768 Z"
         inkscape:connector-curvature="0" /></clipPath><linearGradient
       id="linearGradient340"
       spreadMethod="pad"
       gradientTransform="matrix(93.006485,0,0,-93.006485,537.06464,536.54236)"
       gradientUnits="userSpaceOnUse"
       y2="0"
       x2="1"
       y1="0"
       x1="0"><stop
         id="stop336"
         offset="0"
         style="stop-opacity:1;stop-color:#ffffff" /><stop
         id="stop338"
         offset="1"
         style="stop-opacity:0;stop-color:#ffffff" /></linearGradient><mask
       id="mask342"
       height="1"
       width="1"
       y="0"
       x="0"
       maskUnits="userSpaceOnUse"><g
         id="g352"><g
           id="g350"
           clip-path="url(#clipPath334)"><g
             id="g348"><g
               id="g346"><path
                 id="path344"
                 style="fill:url(#linearGradient340);stroke:none"
                 d="M -32768,32767 H 32767 V -32768 H -32768 Z"
                 inkscape:connector-curvature="0" /></g></g></g></g></mask><linearGradient
       id="linearGradient358"
       spreadMethod="pad"
       gradientTransform="matrix(93.006485,0,0,-93.006485,537.06464,536.54236)"
       gradientUnits="userSpaceOnUse"
       y2="0"
       x2="1"
       y1="0"
       x1="0"><stop
         id="stop354"
         offset="0"
         style="stop-opacity:1;stop-color:#7e3136" /><stop
         id="stop356"
         offset="1"
         style="stop-opacity:1;stop-color:#ed1c24" /></linearGradient></defs><g
     transform="matrix(1.3333333,0,0,-1.3333333,-520.97199,1016.5)"
     id="g10"><g
       id="g12"><g
         clip-path="url(#clipPath18)"
         id="g14"><path
           id="path186"
           style="fill:#ffffff;fill-opacity:1;fill-rule:nonzero;stroke:none"
           d="M 960,317.625 H 390.729 v 444.75 H 960 Z"
           inkscape:connector-curvature="0" /><g
           transform="translate(724.982,515.5724)"
           id="g188"><path
             id="path190"
             style="fill:#ed1d24;fill-opacity:1;fill-rule:nonzero;stroke:none"
             d="m 0,0 c -7.106,-9.639 -18.534,-15.907 -31.4,-15.907 -21.503,0 -38.996,17.494 -38.996,38.996 0,21.502 17.493,38.996 38.996,38.996 4.237,0 8.315,-0.689 12.139,-1.945 l 12.874,16.164 c -7.595,3.585 -16.072,5.6 -25.013,5.6 -32.432,0 -58.816,-26.384 -58.816,-58.815 0,-32.431 26.384,-58.815 58.816,-58.815 24.238,0 45.094,14.741 54.087,35.726 z"
             inkscape:connector-curvature="0" /></g><g
           transform="translate(537.065,579.6957)"
           id="g192"><path
             id="path194"
             style="fill:#ed1d24;fill-opacity:1;fill-rule:nonzero;stroke:none"
             d="m 0,0 h 45.549 c 8.38,0 16.915,-2.479 20.764,-6.035 3.958,-3.636 6,-8.27 6.247,-14.2 0.324,-6.408 -1.84,-11.568 -6.619,-15.776 -4.907,-4.326 -11.788,-6.518 -20.452,-6.518 H 27.297 l 42.824,-57.32 H 93.006 L 61.903,-57.98 c 7.803,1.415 14.524,5.203 20.015,11.294 6.229,6.906 9.495,15.214 9.708,24.709 0.21,11.562 -3.759,21.205 -11.795,28.663 C 72.453,13.53 59.044,17.781 44.833,17.781 H -11.315 L 0,0"
             inkscape:connector-curvature="0" /></g><g
           transform="translate(763.4986,559.7852)"
           id="g196"><path
             id="path198"
             style="fill:#ed1d24;fill-opacity:1;fill-rule:nonzero;stroke:none"
             d="m 0,0 c 0,13.453 -10.906,24.359 -24.359,24.359 -13.454,0 -24.36,-10.906 -24.36,-24.359 0,-13.453 10.906,-24.359 24.36,-24.359 C -10.906,-24.359 0,-13.453 0,0"
             inkscape:connector-curvature="0" /></g><g
           id="g200"><g
             id="g202" /><g
             id="g256"><g
               style="opacity:0.5"
               id="g254"
               clip-path="url(#clipPath206)"><g
                 id="g252"><g
                   id="g250"
                   clip-path="url(#clipPath210)"><g
                     id="g248"><g
                       id="g240" /><g
                       id="g246"
                       mask="url(#mask222)"><g
                         id="g244"><path
                           id="path242"
                           style="fill:url(#linearGradient238);stroke:none"
                           d="m 739.139,535.426 c -13.453,0 -24.359,10.906 -24.359,24.359 0,13.453 10.906,24.359 24.359,24.359 0,0 -31.541,-23.921 0,-48.718"
                           inkscape:connector-curvature="0" /></g></g></g></g></g></g></g></g><g
           transform="translate(730.8716,567.8777)"
           id="g258"><path
             id="path260"
             style="fill:#ffffff;fill-opacity:1;fill-rule:nonzero;stroke:none"
             d="m 0,0 c 0.388,1.251 0.971,2.343 1.749,3.278 0.775,0.935 1.753,1.663 2.931,2.185 1.177,0.523 2.532,0.783 4.061,0.783 1.165,0 2.277,-0.182 3.332,-0.546 1.057,-0.364 1.986,-0.886 2.787,-1.566 0.801,-0.68 1.439,-1.518 1.912,-2.512 0.473,-0.997 0.71,-2.114 0.71,-3.352 0,-1.287 -0.206,-2.392 -0.619,-3.314 -0.413,-0.923 -0.96,-1.743 -1.638,-2.459 -0.681,-0.716 -1.452,-1.365 -2.314,-1.948 -0.861,-0.582 -1.729,-1.16 -2.603,-1.731 -0.874,-0.57 -1.725,-1.183 -2.55,-1.839 -0.826,-0.655 -1.554,-1.42 -2.186,-2.294 h 12.056 v -4.443 H -1.093 c 0,1.48 0.213,2.767 0.638,3.861 0.424,1.092 1.001,2.069 1.73,2.931 0.729,0.862 1.584,1.657 2.568,2.386 0.983,0.729 2.02,1.468 3.113,2.222 0.559,0.388 1.153,0.783 1.785,1.183 0.631,0.401 1.208,0.843 1.73,1.329 0.522,0.486 0.96,1.033 1.311,1.64 0.352,0.607 0.529,1.299 0.529,2.076 0,1.238 -0.359,2.203 -1.075,2.895 C 10.52,1.458 9.603,1.804 8.486,1.804 7.733,1.804 7.096,1.626 6.573,1.275 6.052,0.923 5.633,0.461 5.317,-0.109 5.002,-0.679 4.776,-1.311 4.644,-2.003 4.511,-2.695 4.443,-3.381 4.443,-4.06 H -0.51 C -0.559,-2.604 -0.389,-1.25 0,0"
             inkscape:connector-curvature="0" /></g><g
           id="g262"><g
             id="g264" /><g
             id="g318"><g
               style="opacity:0.5"
               id="g316"
               clip-path="url(#clipPath268)"><g
                 id="g314"><g
                   id="g312"
                   clip-path="url(#clipPath272)"><g
                     id="g310"><g
                       id="g302" /><g
                       id="g308"
                       mask="url(#mask284)"><g
                         id="g306"><path
                           id="path304"
                           style="fill:url(#linearGradient300);stroke:none"
                           d="m 634.766,538.661 c 0,-32.431 27.131,-58.815 59.562,-58.815 24.239,0 44.352,14.741 53.345,35.726 h -22.684 c -7.107,-9.639 -17.794,-15.907 -30.661,-15.907 -21.502,0 -58.815,17.494 -58.815,38.996"
                           inkscape:connector-curvature="0" /></g></g></g></g></g></g></g></g><g
           id="g320"><g
             id="g322" /><g
             id="g376"><g
               style="opacity:0.5"
               id="g374"
               clip-path="url(#clipPath326)"><g
                 id="g372"><g
                   id="g370"
                   clip-path="url(#clipPath330)"><g
                     id="g368"><g
                       id="g360" /><g
                       id="g366"
                       mask="url(#mask342)"><g
                         id="g364"><path
                           id="path362"
                           style="fill:url(#linearGradient358);stroke:none"
                           d="m 630.071,479.846 -31.103,41.87 c 7.803,1.415 14.524,5.202 20.015,11.293 6.229,6.907 9.495,15.215 9.708,24.71 0,0 5.794,62.203 -91.626,21.977 h 45.549 c 8.38,0 16.915,-2.479 20.764,-6.035 3.958,-3.636 6,-8.27 6.247,-14.201 0.324,-6.407 -1.84,-11.567 -6.619,-15.775 -4.907,-4.326 -11.788,-6.519 -20.452,-6.519 h -18.192 z"
                           inkscape:connector-curvature="0" /></g></g></g></g></g></g></g></g><g
           transform="translate(751.6685,499.7554)"
           id="g378"><path
             id="path380"
             style="fill:#231f20;fill-opacity:1;fill-rule:nonzero;stroke:none"
             d="M 0,0 H 3.931 C 5.345,0 6.436,-0.373 7.266,-1.14 8.006,-1.82 8.388,-2.691 8.436,-3.809 8.495,-5.01 8.09,-5.977 7.196,-6.766 6.249,-7.6 4.967,-8.006 3.274,-8.006 H 0 Z m 10.713,-9.23 c 1.281,1.42 1.953,3.127 1.997,5.077 V -4.15 C 12.753,-1.773 11.937,0.21 10.283,1.744 8.654,3.253 6.47,4.019 3.788,4.019 H -4.22 V -19.909 H 0 v 10.797 l 8.067,-10.797 h 5.152 l -6.26,8.428 c 1.452,0.339 2.711,1.093 3.754,2.251"
             inkscape:connector-curvature="0" /></g><g
           transform="translate(769.9214,502.1329)"
           id="g382"><path
             id="path384"
             style="fill:#231f20;fill-opacity:1;fill-rule:nonzero;stroke:none"
             d="m 0,0 c -1.284,-1.124 -1.935,-2.718 -1.935,-4.738 v -11.168 c 0,-2.021 0.651,-3.616 1.935,-4.738 1.246,-1.09 2.837,-1.642 4.73,-1.642 h 7.294 v 4.019 H 4.712 c -1.187,0 -1.595,0.278 -1.697,0.38 -0.541,0.566 -0.817,1.105 -0.817,1.599 v 4.085 h 7.369 v 4.077 H 2.198 v 3.759 c 0,0.497 0.276,1.039 0.801,1.591 0.149,0.148 0.569,0.398 1.713,0.398 h 7.312 v 4.02 H 4.73 C 2.838,1.642 1.246,1.09 0,0"
             inkscape:connector-curvature="0" /></g><g
           transform="translate(789.5806,484.3121)"
           id="g386"><path
             id="path388"
             style="fill:#231f20;fill-opacity:1;fill-rule:nonzero;stroke:none"
             d="M 0,0 C -0.537,0.549 -0.81,1.076 -0.81,1.568 V 19.491 H -4.942 V 1.943 c 0,-2.04 0.65,-3.644 1.934,-4.766 1.246,-1.09 2.848,-1.643 4.76,-1.643 h 7.293 v 4.077 H 1.733 C 0.521,-0.389 0.11,-0.11 0,0"
             inkscape:connector-curvature="0" /></g><path
           id="path390"
           style="fill:#231f20;fill-opacity:1;fill-rule:nonzero;stroke:none"
           d="m 800.949,479.846 h 4.133 v 23.957 h -4.133 z"
           inkscape:connector-curvature="0" /><g
           transform="translate(811.023,502.1329)"
           id="g392"><path
             id="path394"
             style="fill:#231f20;fill-opacity:1;fill-rule:nonzero;stroke:none"
             d="m 0,0 c -1.283,-1.124 -1.935,-2.718 -1.935,-4.738 v -11.168 c 0,-2.021 0.652,-3.616 1.935,-4.738 1.246,-1.09 2.837,-1.642 4.73,-1.642 h 7.294 v 4.019 H 4.713 c -1.187,0 -1.595,0.278 -1.697,0.38 -0.542,0.566 -0.817,1.105 -0.817,1.599 v 4.085 h 7.369 v 4.077 H 2.199 v 3.759 c 0,0.497 0.275,1.039 0.8,1.591 0.149,0.148 0.57,0.398 1.714,0.398 h 7.311 v 4.02 H 4.73 C 2.838,1.642 1.246,1.09 0,0"
             inkscape:connector-curvature="0" /></g><g
           transform="translate(830.6744,499.3567)"
           id="g396"><path
             id="path398"
             style="fill:#231f20;fill-opacity:1;fill-rule:nonzero;stroke:none"
             d="M 0,0 C 0.149,0.149 0.57,0.399 1.714,0.399 H 9.025 V 4.418 H 1.731 C -0.161,4.418 -1.753,3.866 -2.998,2.776 -4.282,1.652 -4.934,0.058 -4.934,-1.962 V -19.51 H -0.8 V -9.427 H 6.569 V -5.35 H -0.8 v 3.759 c 0,0.498 0.275,1.039 0.8,1.591"
             inkscape:connector-curvature="0" /></g><path
           id="path400"
           style="fill:#ed1d24;fill-opacity:1;fill-rule:nonzero;stroke:none"
           d="M 487.556,462.782 H 863.173 V 617.218 H 487.556 Z m 382.487,-6.869 H 480.688 v 168.174 h 389.355 z"
           inkscape:connector-curvature="0" /></g></g></g></svg>