<?xml version="1.0" encoding="UTF-8" standalone="no"?>
<!-- Created with Inkscape (http://www.inkscape.org/) -->

<svg
        xmlns:dc="http://purl.org/dc/elements/1.1/"
        xmlns:cc="http://creativecommons.org/ns#"
        xmlns:rdf="http://www.w3.org/1999/02/22-rdf-syntax-ns#"
        xmlns="http://www.w3.org/2000/svg"
        xmlns:sodipodi="http://sodipodi.sourceforge.net/DTD/sodipodi-0.dtd"
        xmlns:inkscape="http://www.inkscape.org/namespaces/inkscape"
        version="1.1"
        id="svg2"
        xml:space="preserve"
        width="759.02795"
        height="593"
        viewBox="0 0 759.02795 593"
        sodipodi:docname="rc2_logo_red.svg"
        inkscape:version="0.92.4 (5da689c313, 2019-01-14)"><metadata
     id="metadata8"><rdf:RDF><cc:Work
         rdf:about=""><dc:format>image/svg+xml</dc:format><dc:type
           rdf:resource="http://purl.org/dc/dcmitype/StillImage" /><dc:title /></cc:Work></rdf:RDF></metadata><defs
     id="defs6"><clipPath
       clipPathUnits="userSpaceOnUse"
       id="clipPath18"><path
         d="M 0,1080 H 1920 V 0 H 0 Z"
         id="path16"
         inkscape:connector-curvature="0" /></clipPath><clipPath
       clipPathUnits="userSpaceOnUse"
       id="clipPath420"><path
         d="m 1284.05,584.144 h 24.36 v -48.718 h -24.36 z"
         id="path418"
         inkscape:connector-curvature="0" /></clipPath><clipPath
       clipPathUnits="userSpaceOnUse"
       id="clipPath424"><path
         d="m 1308.41,535.426 c -13.453,0 -24.359,10.906 -24.359,24.359 0,13.453 10.906,24.359 24.359,24.359 0,0 -31.541,-23.921 0,-48.718"
         id="path422"
         inkscape:connector-curvature="0" /></clipPath><clipPath
       clipPathUnits="userSpaceOnUse"
       id="clipPath428"><path
         d="M -32768,32767 H 32767 V -32768 H -32768 Z"
         id="path426"
         inkscape:connector-curvature="0" /></clipPath><linearGradient
       x1="0"
       y1="0"
       x2="1"
       y2="0"
       gradientUnits="userSpaceOnUse"
       gradientTransform="matrix(24.359177,0,0,-24.359177,1284.0509,559.78516)"
       spreadMethod="pad"
       id="linearGradient434"><stop
         style="stop-opacity:1;stop-color:#ffffff"
         offset="0"
         id="stop430" /><stop
         style="stop-opacity:0;stop-color:#ffffff"
         offset="1"
         id="stop432" /></linearGradient><mask
       maskUnits="userSpaceOnUse"
       x="0"
       y="0"
       width="1"
       height="1"
       id="mask436"><g
         id="g446"><g
           clip-path="url(#clipPath428)"
           id="g444"><g
             id="g442"><g
               id="g440"><path
                 d="M -32768,32767 H 32767 V -32768 H -32768 Z"
                 style="fill:url(#linearGradient434);stroke:none"
                 id="path438"
                 inkscape:connector-curvature="0" /></g></g></g></g></mask><linearGradient
       x1="0"
       y1="0"
       x2="1"
       y2="0"
       gradientUnits="userSpaceOnUse"
       gradientTransform="matrix(24.359177,0,0,-24.359177,1284.0509,559.78516)"
       spreadMethod="pad"
       id="linearGradient452"><stop
         style="stop-opacity:1;stop-color:#b3b3b3"
         offset="0"
         id="stop448" /><stop
         style="stop-opacity:1;stop-color:#f6f6f6"
         offset="1"
         id="stop450" /></linearGradient><clipPath
       clipPathUnits="userSpaceOnUse"
       id="clipPath482"><path
         d="m 1204.04,538.661 h 112.9 v -58.815 h -112.9 z"
         id="path480"
         inkscape:connector-curvature="0" /></clipPath><clipPath
       clipPathUnits="userSpaceOnUse"
       id="clipPath486"><path
         d="m 1204.037,538.661 c 0,-22.013 12.233,-41.406 30.406,-51.487 8.6,-4.771 18.738,-7.328 29.155,-7.328 24.239,0 44.353,14.741 53.346,35.726 h -22.685 c -7.106,-9.639 -17.794,-15.907 -30.661,-15.907 -21.502,0 -59.561,17.494 -59.561,38.996"
         id="path484"
         inkscape:connector-curvature="0" /></clipPath><clipPath
       clipPathUnits="userSpaceOnUse"
       id="clipPath490"><path
         d="M -32768,32767 H 32767 V -32768 H -32768 Z"
         id="path488"
         inkscape:connector-curvature="0" /></clipPath><linearGradient
       x1="0"
       y1="0"
       x2="1"
       y2="0"
       gradientUnits="userSpaceOnUse"
       gradientTransform="matrix(112.90681,0,0,-112.90681,1204.0367,509.25388)"
       spreadMethod="pad"
       id="linearGradient496"><stop
         style="stop-opacity:1;stop-color:#ffffff"
         offset="0"
         id="stop492" /><stop
         style="stop-opacity:0;stop-color:#ffffff"
         offset="1"
         id="stop494" /></linearGradient><mask
       maskUnits="userSpaceOnUse"
       x="0"
       y="0"
       width="1"
       height="1"
       id="mask498"><g
         id="g508"><g
           clip-path="url(#clipPath490)"
           id="g506"><g
             id="g504"><g
               id="g502"><path
                 d="M -32768,32767 H 32767 V -32768 H -32768 Z"
                 style="fill:url(#linearGradient496);stroke:none"
                 id="path500"
                 inkscape:connector-curvature="0" /></g></g></g></g></mask><linearGradient
       x1="0"
       y1="0"
       x2="1"
       y2="0"
       gradientUnits="userSpaceOnUse"
       gradientTransform="matrix(112.90681,0,0,-112.90681,1204.0367,509.25388)"
       spreadMethod="pad"
       id="linearGradient514"><stop
         style="stop-opacity:1;stop-color:#b3b3b3"
         offset="0"
         id="stop510" /><stop
         style="stop-opacity:1;stop-color:#f6f6f6"
         offset="1"
         id="stop512" /></linearGradient><clipPath
       clipPathUnits="userSpaceOnUse"
       id="clipPath540"><path
         d="m 1106.34,593.238 h 93 V 479.846 h -93 z"
         id="path538"
         inkscape:connector-curvature="0" /></clipPath><clipPath
       clipPathUnits="userSpaceOnUse"
       id="clipPath544"><path
         d="m 1199.341,479.846 -31.101,41.87 c 7.802,1.415 14.522,5.202 20.013,11.293 6.23,6.907 9.496,15.215 9.708,24.71 0,0 5.794,62.203 -91.626,21.977 h 45.549 c 8.38,0 16.915,-2.479 20.765,-6.035 3.957,-3.636 6,-8.27 6.247,-14.201 0.323,-6.407 -1.841,-11.567 -6.619,-15.775 -4.907,-4.326 -11.788,-6.519 -20.452,-6.519 h -18.193 z"
         id="path542"
         inkscape:connector-curvature="0" /></clipPath><clipPath
       clipPathUnits="userSpaceOnUse"
       id="clipPath548"><path
         d="M -32768,32767 H 32767 V -32768 H -32768 Z"
         id="path546"
         inkscape:connector-curvature="0" /></clipPath><linearGradient
       x1="0"
       y1="0"
       x2="1"
       y2="0"
       gradientUnits="userSpaceOnUse"
       gradientTransform="matrix(93.006485,0,0,-93.006485,1106.3352,536.54236)"
       spreadMethod="pad"
       id="linearGradient554"><stop
         style="stop-opacity:1;stop-color:#ffffff"
         offset="0"
         id="stop550" /><stop
         style="stop-opacity:0;stop-color:#ffffff"
         offset="1"
         id="stop552" /></linearGradient><mask
       maskUnits="userSpaceOnUse"
       x="0"
       y="0"
       width="1"
       height="1"
       id="mask556"><g
         id="g566"><g
           clip-path="url(#clipPath548)"
           id="g564"><g
             id="g562"><g
               id="g560"><path
                 d="M -32768,32767 H 32767 V -32768 H -32768 Z"
                 style="fill:url(#linearGradient554);stroke:none"
                 id="path558"
                 inkscape:connector-curvature="0" /></g></g></g></g></mask><linearGradient
       x1="0"
       y1="0"
       x2="1"
       y2="0"
       gradientUnits="userSpaceOnUse"
       gradientTransform="matrix(93.006485,0,0,-93.006485,1106.3352,536.54236)"
       spreadMethod="pad"
       id="linearGradient572"><stop
         style="stop-opacity:1;stop-color:#b3b3b3"
         offset="0"
         id="stop568" /><stop
         style="stop-opacity:1;stop-color:#f6f6f6"
         offset="1"
         id="stop570" /></linearGradient></defs><sodipodi:namedview
     pagecolor="#ffffff"
     bordercolor="#666666"
     borderopacity="1"
     objecttolerance="10"
     gridtolerance="10"
     guidetolerance="10"
     inkscape:pageopacity="0"
     inkscape:pageshadow="2"
     inkscape:window-width="2560"
     inkscape:window-height="1532"
     id="namedview4"
     showgrid="false"
     inkscape:zoom="0.65555555"
     inkscape:cx="-256.43813"
     inkscape:cy="186.78544"
     inkscape:window-x="0"
     inkscape:window-y="31"
     inkscape:window-maximized="1"
     inkscape:current-layer="svg2"
     fit-margin-top="0"
     fit-margin-left="0"
     fit-margin-right="0"
     fit-margin-bottom="0" /><g
     id="g10"
     inkscape:groupmode="layer"
     inkscape:label="RC2_-_Logotipo_PresentacioÌn"
     transform="matrix(1.3333333,0,0,-1.3333333,-900.486,1016.5)"><g
       id="g12"
       transform="translate(-284.63548,1.35e-5)"><g
         id="g14"
         clip-path="url(#clipPath18)"><path
           d="M 1529.271,317.625 H 960 v 444.75 h 569.271 z"
           style="fill:#ed1d24;fill-opacity:1;fill-rule:nonzero;stroke:none"
           id="path184"
           inkscape:connector-curvature="0" /><g
           id="g402"
           transform="translate(1294.2524,515.5724)"><path
             d="m 0,0 c -7.106,-9.639 -18.533,-15.907 -31.4,-15.907 -21.503,0 -38.996,17.494 -38.996,38.996 0,21.502 17.493,38.996 38.996,38.996 4.237,0 8.315,-0.689 12.139,-1.945 l 12.874,16.164 c -7.595,3.585 -16.072,5.6 -25.013,5.6 -32.432,0 -58.816,-26.384 -58.816,-58.815 0,-32.431 26.384,-58.815 58.816,-58.815 24.238,0 45.094,14.741 54.087,35.726 z"
             style="fill:#ffffff;fill-opacity:1;fill-rule:nonzero;stroke:none"
             id="path404"
             inkscape:connector-curvature="0" /></g><g
           id="g406"
           transform="translate(1106.3354,579.6957)"><path
             d="m 0,0 h 45.549 c 8.38,0 16.915,-2.479 20.764,-6.035 3.958,-3.636 6,-8.27 6.248,-14.2 0.323,-6.408 -1.841,-11.568 -6.62,-15.776 -4.907,-4.326 -11.788,-6.518 -20.452,-6.518 H 27.297 l 42.824,-57.32 H 93.006 L 61.904,-57.98 c 7.802,1.415 14.523,5.203 20.014,11.294 6.229,6.906 9.495,15.214 9.708,24.709 0.21,11.562 -3.759,21.205 -11.795,28.663 C 72.453,13.53 59.044,17.781 44.833,17.781 H -11.315 L 0,0"
             style="fill:#ffffff;fill-opacity:1;fill-rule:nonzero;stroke:none"
             id="path408"
             inkscape:connector-curvature="0" /></g><g
           id="g410"
           transform="translate(1332.769,559.7852)"><path
             d="m 0,0 c 0,13.453 -10.906,24.359 -24.359,24.359 -13.454,0 -24.359,-10.906 -24.359,-24.359 0,-13.453 10.905,-24.359 24.359,-24.359 C -10.906,-24.359 0,-13.453 0,0"
             style="fill:#ffffff;fill-opacity:1;fill-rule:nonzero;stroke:none"
             id="path412"
             inkscape:connector-curvature="0" /></g><g
           id="g414"><g
             id="g416" /><g
             id="g470"><g
               clip-path="url(#clipPath420)"
               id="g468"
               style="opacity:0.5"><g
                 id="g466"><g
                   clip-path="url(#clipPath424)"
                   id="g464"><g
                     id="g462"><g
                       id="g454" /><g
                       mask="url(#mask436)"
                       id="g460"><g
                         id="g458"><path
                           d="m 1308.41,535.426 c -13.453,0 -24.359,10.906 -24.359,24.359 0,13.453 10.906,24.359 24.359,24.359 0,0 -31.541,-23.921 0,-48.718"
                           style="fill:url(#linearGradient452);stroke:none"
                           id="path456"
                           inkscape:connector-curvature="0" /></g></g></g></g></g></g></g></g><g
           id="g472"
           transform="translate(1300.1421,567.8777)"><path
             d="m 0,0 c 0.388,1.251 0.971,2.343 1.749,3.278 0.775,0.935 1.753,1.663 2.931,2.185 1.177,0.523 2.532,0.783 4.061,0.783 1.166,0 2.277,-0.182 3.332,-0.546 1.057,-0.364 1.987,-0.886 2.787,-1.566 0.801,-0.68 1.439,-1.518 1.912,-2.512 0.473,-0.997 0.71,-2.114 0.71,-3.352 0,-1.287 -0.206,-2.392 -0.619,-3.314 -0.413,-0.923 -0.959,-1.743 -1.638,-2.459 -0.681,-0.716 -1.452,-1.365 -2.314,-1.948 -0.861,-0.582 -1.729,-1.16 -2.603,-1.731 -0.874,-0.57 -1.725,-1.183 -2.55,-1.839 -0.825,-0.655 -1.554,-1.42 -2.186,-2.294 h 12.056 v -4.443 H -1.093 c 0,1.48 0.213,2.767 0.638,3.861 0.424,1.092 1.001,2.069 1.73,2.931 0.729,0.862 1.584,1.657 2.568,2.386 0.983,0.729 2.02,1.468 3.113,2.222 0.559,0.388 1.154,0.783 1.785,1.183 0.631,0.401 1.208,0.843 1.731,1.329 0.521,0.486 0.959,1.033 1.31,1.64 0.352,0.607 0.529,1.299 0.529,2.076 0,1.238 -0.359,2.203 -1.075,2.895 C 10.521,1.458 9.603,1.804 8.486,1.804 7.733,1.804 7.096,1.626 6.574,1.275 6.052,0.923 5.633,0.461 5.317,-0.109 5.002,-0.679 4.777,-1.311 4.644,-2.003 4.511,-2.695 4.443,-3.381 4.443,-4.06 H -0.51 C -0.559,-2.604 -0.389,-1.25 0,0"
             style="fill:#ed1d24;fill-opacity:1;fill-rule:nonzero;stroke:none"
             id="path474"
             inkscape:connector-curvature="0" /></g><g
           id="g476"><g
             id="g478" /><g
             id="g532"><g
               clip-path="url(#clipPath482)"
               id="g530"
               style="opacity:0.5"><g
                 id="g528"><g
                   clip-path="url(#clipPath486)"
                   id="g526"><g
                     id="g524"><g
                       id="g516" /><g
                       mask="url(#mask498)"
                       id="g522"><g
                         id="g520"><path
                           d="m 1204.037,538.661 c 0,-22.013 12.233,-41.406 30.406,-51.487 8.6,-4.771 18.738,-7.328 29.155,-7.328 24.239,0 44.353,14.741 53.346,35.726 h -22.685 c -7.106,-9.639 -17.794,-15.907 -30.661,-15.907 -21.502,0 -59.561,17.494 -59.561,38.996"
                           style="fill:url(#linearGradient514);stroke:none"
                           id="path518"
                           inkscape:connector-curvature="0" /></g></g></g></g></g></g></g></g><g
           id="g534"><g
             id="g536" /><g
             id="g590"><g
               clip-path="url(#clipPath540)"
               id="g588"
               style="opacity:0.5"><g
                 id="g586"><g
                   clip-path="url(#clipPath544)"
                   id="g584"><g
                     id="g582"><g
                       id="g574" /><g
                       mask="url(#mask556)"
                       id="g580"><g
                         id="g578"><path
                           d="m 1199.341,479.846 -31.101,41.87 c 7.802,1.415 14.522,5.202 20.013,11.293 6.23,6.907 9.496,15.215 9.708,24.71 0,0 5.794,62.203 -91.626,21.977 h 45.549 c 8.38,0 16.915,-2.479 20.765,-6.035 3.957,-3.636 6,-8.27 6.247,-14.201 0.323,-6.407 -1.841,-11.567 -6.619,-15.775 -4.907,-4.326 -11.788,-6.519 -20.452,-6.519 h -18.193 z"
                           style="fill:url(#linearGradient572);stroke:none"
                           id="path576"
                           inkscape:connector-curvature="0" /></g></g></g></g></g></g></g></g><g
           id="g592"
           transform="translate(1320.939,499.7554)"><path
             d="M 0,0 H 3.931 C 5.345,0 6.436,-0.373 7.266,-1.14 8.006,-1.82 8.389,-2.691 8.436,-3.809 8.495,-5.01 8.09,-5.977 7.196,-6.766 6.249,-7.6 4.967,-8.006 3.274,-8.006 H 0 Z m 10.713,-9.23 c 1.281,1.42 1.953,3.127 1.997,5.077 V -4.15 C 12.753,-1.773 11.937,0.21 10.283,1.744 8.654,3.253 6.47,4.019 3.788,4.019 H -4.22 V -19.909 H 0 v 10.797 l 8.067,-10.797 h 5.152 l -6.26,8.428 c 1.452,0.339 2.712,1.093 3.754,2.251"
             style="fill:#ffffff;fill-opacity:1;fill-rule:nonzero;stroke:none"
             id="path594"
             inkscape:connector-curvature="0" /></g><g
           id="g596"
           transform="translate(1339.1919,502.1329)"><path
             d="m 0,0 c -1.284,-1.124 -1.935,-2.718 -1.935,-4.738 v -11.168 c 0,-2.021 0.651,-3.616 1.935,-4.738 1.246,-1.09 2.837,-1.642 4.73,-1.642 h 7.294 v 4.019 H 4.712 c -1.187,0 -1.595,0.278 -1.697,0.38 -0.541,0.566 -0.817,1.105 -0.817,1.599 v 4.085 h 7.37 v 4.077 h -7.37 v 3.759 c 0,0.497 0.276,1.039 0.801,1.591 0.149,0.148 0.57,0.398 1.713,0.398 h 7.312 v 4.02 H 4.73 C 2.838,1.642 1.246,1.09 0,0"
             style="fill:#ffffff;fill-opacity:1;fill-rule:nonzero;stroke:none"
             id="path598"
             inkscape:connector-curvature="0" /></g><g
           id="g600"
           transform="translate(1358.8511,484.3121)"><path
             d="M 0,0 C -0.537,0.549 -0.809,1.076 -0.809,1.568 V 19.491 H -4.942 V 1.943 c 0,-2.04 0.65,-3.644 1.934,-4.766 1.246,-1.09 2.848,-1.643 4.76,-1.643 h 7.293 v 4.077 H 1.733 C 0.521,-0.389 0.111,-0.11 0,0"
             style="fill:#ffffff;fill-opacity:1;fill-rule:nonzero;stroke:none"
             id="path602"
             inkscape:connector-curvature="0" /></g><path
           d="m 1370.219,479.846 h 4.133 v 23.957 h -4.133 z"
           style="fill:#ffffff;fill-opacity:1;fill-rule:nonzero;stroke:none"
           id="path604"
           inkscape:connector-curvature="0" /><g
           id="g606"
           transform="translate(1380.2944,502.1329)"><path
             d="m 0,0 c -1.284,-1.124 -1.936,-2.718 -1.936,-4.738 v -11.168 c 0,-2.021 0.652,-3.616 1.936,-4.738 1.245,-1.09 2.836,-1.642 4.729,-1.642 h 7.294 v 4.019 H 4.712 c -1.187,0 -1.595,0.278 -1.697,0.38 -0.542,0.566 -0.817,1.105 -0.817,1.599 v 4.085 h 7.369 v 4.077 H 2.198 v 3.759 c 0,0.497 0.275,1.039 0.8,1.591 0.149,0.148 0.57,0.398 1.714,0.398 h 7.311 v 4.02 H 4.729 C 2.837,1.642 1.245,1.09 0,0"
             style="fill:#ffffff;fill-opacity:1;fill-rule:nonzero;stroke:none"
             id="path608"
             inkscape:connector-curvature="0" /></g><g
           id="g610"
           transform="translate(1399.9448,499.3567)"><path
             d="M 0,0 C 0.149,0.149 0.57,0.399 1.714,0.399 H 9.025 V 4.418 H 1.732 c -1.893,0 -3.485,-0.552 -4.73,-1.642 C -4.282,1.652 -4.933,0.058 -4.933,-1.962 V -19.51 H -0.8 V -9.427 H 6.569 V -5.35 H -0.8 v 3.759 c 0,0.498 0.276,1.039 0.8,1.591"
             style="fill:#ffffff;fill-opacity:1;fill-rule:nonzero;stroke:none"
             id="path612"
             inkscape:connector-curvature="0" /></g><path
           d="m 1056.827,462.782 h 375.617 v 154.436 h -375.617 z m 382.486,-6.869 h -389.355 v 168.174 h 389.355 z"
           style="fill:#ffffff;fill-opacity:1;fill-rule:nonzero;stroke:none"
           id="path614"
           inkscape:connector-curvature="0" /></g></g></g></svg>