<?xml version="1.0" encoding="UTF-8"?>
<svg width="19.881" height="25.802" version="1.1" viewBox="0 0 19.881 25.802" xml:space="preserve" xmlns="http://www.w3.org/2000/svg"><g transform="matrix(1.3333 0 0 -1.3333 -6.7479 53.525)"><g transform="translate(18.567 22.111)"><path d="m0 0v14.716h-2.046c-0.031 0.69-0.059 1.325-0.087 1.954h-10.106v-16.67zm1.325-1.319h-14.831v19.317c0.237 0.01 0.481 0.03 0.725 0.03 3.554 2e-3 7.11 0.017 10.664-0.02 0.397-4e-3 0.865-0.215 1.171-0.48 0.78-0.674 1.767-1.312 2.144-2.19 0.376-0.878 0.124-2.03 0.125-3.062 6e-3 -4.21 2e-3 -8.421 2e-3 -12.631z" fill="#fff"/></g><g transform="translate(9.684 31.52)"><path d="m0 0c-0.106 0.146-0.194 0.357-0.269 0.352-0.197-0.012-0.425-0.073-0.573-0.196-0.285-0.236-0.502-0.556-0.789-0.788-0.158-0.128-0.402-0.149-0.607-0.218 0.152-0.272 0.266-0.578 0.472-0.801 0.12-0.131 0.521-0.227 0.564-0.169 0.423 0.578 0.798 1.192 1.202 1.82m0.255 2.933c-0.104 0.139-0.207 0.354-0.265 0.342-0.217-0.043-0.452-0.12-0.62-0.258-0.265-0.219-0.456-0.528-0.727-0.736-0.153-0.117-0.402-0.109-0.608-0.157 0.134-0.273 0.221-0.588 0.417-0.805 0.133-0.147 0.571-0.266 0.613-0.209 0.422 0.577 0.79 1.193 1.19 1.823m-1.824-9.729c-0.101 0.081-0.203 0.161-0.305 0.242-0.122-0.178-0.386-0.452-0.341-0.52 0.213-0.318 0.489-0.608 0.799-0.831 0.047-0.034 0.414 0.313 0.583 0.525 0.201 0.252 0.396 0.53 0.505 0.829 0.095 0.257 0.066 0.559 0.092 0.841-0.254-0.132-0.538-0.228-0.755-0.406-0.226-0.186-0.388-0.45-0.578-0.68m6e-3 3.06c-0.076 0.075-0.151 0.151-0.227 0.226-0.149-0.118-0.441-0.313-0.425-0.343 0.179-0.335 0.377-0.673 0.639-0.943 0.07-0.073 0.455 0.016 0.553 0.142 0.274 0.352 0.511 0.747 0.688 1.156 0.108 0.251 0.078 0.561 0.11 0.844-0.256-0.128-0.543-0.217-0.759-0.394-0.228-0.186-0.389-0.455-0.579-0.688m5.957 5.234c0.803 0 1.61-0.043 2.409 0.023 0.271 0.022 0.519 0.319 0.778 0.49-0.247 0.184-0.488 0.522-0.74 0.529-1.606 0.049-3.215 0.046-4.821 2e-3 -0.235-6e-3 -0.625-0.295-0.659-0.5-0.071-0.437 0.29-0.556 0.697-0.548 0.778 0.014 1.557 4e-3 2.336 4e-3m0.05-8.753c0.804 0 1.612-0.046 2.409 0.026 0.256 0.023 0.484 0.357 0.725 0.549-0.236 0.165-0.469 0.466-0.709 0.472-1.606 0.042-3.215 0.042-4.821 1e-3 -0.24-6e-3 -0.631-0.265-0.677-0.469-0.099-0.436 0.255-0.583 0.661-0.58 0.804 5e-3 1.608 1e-3 2.412 1e-3m-0.053 2.996c0.829 0 1.66-0.038 2.484 0.023 0.246 0.018 0.471 0.314 0.705 0.483-0.22 0.187-0.435 0.529-0.661 0.536-1.656 0.045-3.315 0.042-4.971 1e-3 -0.211-5e-3 -0.413-0.322-0.62-0.493 0.217-0.184 0.423-0.505 0.654-0.524 0.798-0.066 1.605-0.026 2.409-0.026m0.065 3.832c-0.829 0-1.659 0.033-2.484-0.022-0.221-0.015-0.423-0.301-0.633-0.462 0.207-0.194 0.41-0.552 0.622-0.558 1.656-0.047 3.315-0.048 4.971 0 0.22 6e-3 0.43 0.359 0.645 0.552-0.212 0.163-0.415 0.452-0.636 0.467-0.825 0.056-1.656 0.022-2.485 0.023" fill="#fff"/></g><g transform="translate(14.14 31.093)"><path d="m0 0c0.829 0 1.66 0.033 2.485-0.023 0.221-0.015 0.424-0.304 0.636-0.467-0.215-0.193-0.425-0.546-0.645-0.552-1.656-0.047-3.315-0.046-4.971 0-0.213 6e-3 -0.415 0.364-0.622 0.558 0.21 0.162 0.412 0.447 0.633 0.462 0.825 0.055 1.655 0.022 2.484 0.022" fill="#fff"/></g><g transform="translate(14.075 27.261)"><path d="m0 0c-0.804 0-1.611-0.04-2.409 0.025-0.231 0.019-0.437 0.341-0.654 0.524 0.207 0.172 0.409 0.489 0.62 0.493 1.656 0.042 3.315 0.045 4.971 0 0.225-7e-3 0.441-0.35 0.66-0.537-0.233-0.168-0.458-0.464-0.704-0.482-0.824-0.061-1.655-0.023-2.484-0.023" fill="#fff"/></g><g transform="translate(14.128 24.265)"><path d="m0 0c-0.804 0-1.608 3e-3 -2.412-1e-3 -0.406-3e-3 -0.76 0.144-0.661 0.58 0.046 0.204 0.437 0.463 0.677 0.469 1.606 0.041 3.215 0.041 4.821-1e-3 0.241-6e-3 0.473-0.307 0.709-0.472-0.241-0.192-0.469-0.526-0.725-0.549-0.797-0.072-1.605-0.026-2.409-0.026" fill="#fff"/></g><g transform="translate(14.078 33.017)"><path d="m0 0c-0.779 0-1.558 0.011-2.336-4e-3 -0.407-8e-3 -0.768 0.111-0.696 0.549 0.033 0.205 0.423 0.493 0.658 0.499 1.606 0.044 3.215 0.047 4.822-2e-3 0.251-7e-3 0.493-0.344 0.74-0.529-0.259-0.171-0.508-0.467-0.778-0.49-0.799-0.065-1.606-0.023-2.41-0.023" fill="#fff"/></g><g transform="translate(8.1206 27.784)"><path d="m0 0c0.19 0.233 0.351 0.502 0.579 0.688 0.216 0.177 0.504 0.266 0.759 0.394-0.032-0.283-2e-3 -0.593-0.109-0.844-0.177-0.409-0.415-0.804-0.688-1.156-0.098-0.126-0.484-0.215-0.554-0.143-0.261 0.271-0.459 0.609-0.638 0.944-0.016 0.03 0.276 0.225 0.424 0.343 0.076-0.075 0.151-0.151 0.227-0.226" fill="#fff"/></g><g transform="translate(8.1152 24.724)"><path d="m0 0c0.19 0.23 0.352 0.494 0.578 0.68 0.217 0.177 0.501 0.274 0.755 0.405-0.026-0.281 2e-3 -0.583-0.092-0.84-0.11-0.299-0.304-0.578-0.506-0.829-0.168-0.212-0.535-0.56-0.582-0.525-0.31 0.223-0.586 0.513-0.799 0.831-0.045 0.068 0.219 0.341 0.341 0.52 0.101-0.081 0.203-0.161 0.305-0.242" fill="#fff"/></g><g transform="translate(9.9389 34.453)"><path d="m0 0c-0.399-0.63-0.768-1.246-1.189-1.823-0.042-0.057-0.48 0.062-0.614 0.209-0.196 0.217-0.283 0.531-0.417 0.804 0.206 0.049 0.455 0.04 0.608 0.158 0.271 0.208 0.462 0.517 0.727 0.735 0.168 0.139 0.403 0.216 0.62 0.259 0.058 0.012 0.161-0.203 0.265-0.342" fill="#fff"/></g><g transform="translate(9.684 31.52)"><path d="m0 0c-0.404-0.628-0.779-1.242-1.202-1.82-0.043-0.058-0.444 0.038-0.564 0.169-0.206 0.223-0.32 0.529-0.472 0.801 0.205 0.069 0.449 0.09 0.607 0.218 0.287 0.232 0.504 0.552 0.789 0.788 0.148 0.123 0.376 0.184 0.573 0.196 0.075 5e-3 0.163-0.206 0.269-0.352" fill="#fff"/></g></g></svg>
