<?xml version="1.0" encoding="UTF-8"?>
<svg width="23.911" height="21.681" version="1.1" viewBox="0 0 23.911 21.681" xml:space="preserve" xmlns="http://www.w3.org/2000/svg"><g transform="matrix(1.3333 0 0 -1.3333 -74.875 54.174)"><g transform="translate(56.992 37.149)"><path d="m0 0c0.777 0 1.579-9e-3 2.38 0.012 0.09 2e-3 0.249 0.166 0.251 0.258 0.02 0.799 0.012 1.599 0.012 2.37-0.886-0.885-1.76-1.758-2.643-2.64m13.337-8.82c0.739-0.743 1.51-1.525 2.289-2.299 0.231-0.23 0.503-0.233 0.732-6e-3 0.243 0.241 0.236 0.528-1e-3 0.77-0.757 0.773-1.528 1.535-2.296 2.304-0.25-0.266-0.484-0.514-0.724-0.769m1.209 3.894c-0.045 2.468-2.019 4.415-4.443 4.346-2.644-0.075-4.382-2.331-4.268-4.602 0.112-2.247 2.102-4.163 4.422-4.123 2.374 0.042 4.332 2.041 4.289 4.379m-14.803 4.353v-10.995c0-0.621 0.011-0.633 0.619-0.633h10.972c0.096 0 0.214-0.033 0.283 0.01 0.125 0.078 0.31 0.199 0.314 0.308 0.027 0.763 0.013 1.529 0.013 2.309-2.388-0.678-4.371-0.146-5.82 1.874-1.154 1.611-1.18 3.796-0.061 5.425 1.44 2.096 3.451 2.651 5.886 1.972 0 0.879 0 1.742-1e-3 2.605 0 0.547-0.05 0.598-0.58 0.598-2.585 1e-3 -5.17 1e-3 -7.755 0-0.119 0-0.239-0.012-0.397-0.02 0-0.833 1e-3 -1.64-1e-3 -2.448-1e-3 -0.694-0.309-1.002-1.001-1.004-0.809-3e-3 -1.616-1e-3 -2.471-1e-3m14.625-6.991c0.8-0.795 1.591-1.578 2.377-2.366 0.343-0.343 0.439-0.757 0.272-1.211-0.158-0.428-0.493-0.651-0.938-0.694-0.383-0.037-0.689 0.129-0.954 0.397-0.697 0.702-1.396 1.403-2.104 2.097-0.083 0.081-0.277 0.178-0.319 0.144-0.098-0.079-0.181-0.233-0.184-0.358-0.017-0.729-4e-3 -1.458-0.01-2.187-5e-3 -0.701-0.338-1.035-1.038-1.036-3.754-2e-3 -7.508-2e-3 -11.262 0-0.699 1e-3 -1.042 0.343-1.042 1.036-2e-3 3.713 0 7.426-2e-3 11.138 0 0.464 0.149 0.858 0.48 1.187 0.799 0.795 1.597 1.591 2.391 2.392 0.35 0.353 0.767 0.507 1.26 0.506 2.709-4e-3 5.418-1e-3 8.127-2e-3 0.759-1e-3 1.083-0.32 1.087-1.073 4e-3 -0.894-7e-3 -1.788 9e-3 -2.681 2e-3 -0.14 0.07-0.345 0.173-0.406 2.247-1.316 3.19-4.322 1.677-6.883" fill="#fff"/></g><g transform="translate(60.662 33.679)"><path d="m0 0c-0.397 0-0.796-0.022-1.189 0.012-0.14 0.011-0.267 0.159-0.4 0.245 0.123 0.096 0.243 0.27 0.369 0.274 0.807 0.025 1.615 0.025 2.421 1e-3 0.13-4e-3 0.254-0.173 0.38-0.266-0.13-0.089-0.255-0.242-0.393-0.254-0.393-0.034-0.792-0.012-1.188-0.012" fill="#fff"/></g><g transform="translate(60.343 31.939)"><path d="m0 0c-0.316 0-0.635-0.022-0.947 0.012-0.115 0.012-0.216 0.156-0.323 0.241 0.11 0.095 0.216 0.269 0.329 0.274 0.645 0.026 1.293 0.024 1.937 1e-3 0.11-4e-3 0.215-0.157 0.321-0.241-0.109-0.096-0.211-0.26-0.329-0.274-0.326-0.038-0.659-0.013-0.988-0.013" fill="#fff"/></g><g transform="translate(60.344 30.777)"><path d="m0 0c-0.316 0-0.635-0.022-0.947 0.011-0.115 0.013-0.216 0.156-0.324 0.24 0.109 0.097 0.213 0.272 0.326 0.277 0.645 0.027 1.293 0.027 1.937 0 0.112-5e-3 0.218-0.182 0.326-0.28-0.109-0.083-0.213-0.225-0.329-0.237-0.327-0.032-0.659-0.011-0.989-0.011" fill="#fff"/></g><g transform="translate(59.915 34.843)"><path d="m0 0c-0.192 0-0.392-0.03-0.575 0.012-0.103 0.023-0.248 0.164-0.248 0.253-1e-3 0.091 0.147 0.255 0.24 0.261 0.396 0.029 0.797 0.028 1.193-1e-3 0.091-6e-3 0.172-0.166 0.258-0.254-0.097-0.091-0.181-0.234-0.294-0.261-0.181-0.044-0.382-0.012-0.574-0.012z" fill="#fff"/></g><g transform="translate(61.686 26.131)"><path d="m0 0c0 0.095-0.032 0.208 8e-3 0.282 0.057 0.105 0.157 0.228 0.26 0.252 0.073 0.017 0.25-0.106 0.261-0.184 0.036-0.238 0.038-0.487 4e-3 -0.725-0.012-0.082-0.184-0.212-0.257-0.197-0.104 0.022-0.214 0.143-0.267 0.249-0.044 0.087-9e-3 0.214-9e-3 0.323" fill="#fff"/></g><g transform="translate(68.103 26.025)"><path d="m0 0c-0.072-0.147-0.145-0.294-0.216-0.441-0.135 0.068-0.337 0.105-0.388 0.213-0.07 0.145-0.065 0.358-0.016 0.52 0.042 0.138 0.19 0.244 0.292 0.365 0.091-0.128 0.194-0.249 0.266-0.387 0.034-0.064 6e-3 -0.161 6e-3 -0.243 0.019-9e-3 0.037-0.018 0.056-0.027" fill="#fff"/></g><g transform="translate(60.784 26.116)"><path d="m0 0c0-0.095 0.034-0.21-8e-3 -0.281-0.066-0.113-0.182-0.197-0.277-0.293-0.088 0.089-0.225 0.165-0.253 0.271-0.045 0.165-0.051 0.359-7e-3 0.523 0.035 0.13 0.171 0.232 0.262 0.346 0.095-0.12 0.2-0.235 0.28-0.365 0.031-0.049 6e-3 -0.133 6e-3 -0.201z" fill="#fff"/></g><g transform="translate(57.891 26.128)"><path d="m0 0c0-0.095 0.033-0.209-8e-3 -0.282-0.064-0.115-0.179-0.204-0.272-0.303-0.096 0.098-0.239 0.181-0.277 0.298-0.048 0.147-0.054 0.337-3e-3 0.483 0.048 0.137 0.194 0.239 0.296 0.357 0.088-0.116 0.187-0.226 0.26-0.351 0.03-0.051 5e-3 -0.134 5e-3 -0.202z" fill="#fff"/></g><g transform="translate(65.146 26.075)"><path d="m0 0c0-0.096 0.038-0.221-8e-3 -0.28-0.081-0.103-0.213-0.166-0.324-0.246-0.08 0.182-0.2 0.357-0.229 0.547-0.033 0.214-0.085 0.504 0.23 0.567 0.092 0.019 0.255-0.12 0.318-0.227 0.054-0.09 0.011-0.238 0.011-0.361z" fill="#fff"/></g><g transform="translate(61.974 34.843)"><path d="m0 0c-0.109 0-0.237-0.036-0.323 9e-3 -0.103 0.053-0.217 0.168-0.234 0.271-0.011 0.072 0.122 0.222 0.212 0.242 0.183 0.041 0.389 0.055 0.569 9e-3 0.123-0.031 0.215-0.18 0.322-0.277-0.113-0.086-0.221-0.182-0.344-0.253-0.052-0.03-0.134-5e-3 -0.202-5e-3z" fill="#fff"/></g><g transform="translate(58.787 26.124)"><path d="m0 0c0 0.082-0.028 0.179 6e-3 0.242 0.063 0.115 0.163 0.211 0.247 0.315 0.101-0.104 0.244-0.191 0.294-0.315 0.052-0.129 0.052-0.308 6e-3 -0.44-0.05-0.143-0.181-0.257-0.276-0.384-0.092 0.126-0.195 0.247-0.273 0.381-0.03 0.051-5e-3 0.133-5e-3 0.201z" fill="#fff"/></g><g transform="translate(63.684 26.125)"><path d="m0 0c1e-3 -0.069 0.026-0.153-4e-3 -0.203-0.081-0.134-0.185-0.253-0.28-0.378-0.086 0.12-0.203 0.228-0.249 0.361-0.043 0.123-0.047 0.286 0 0.405 0.054 0.138 0.179 0.248 0.274 0.371 0.087-0.117 0.183-0.228 0.254-0.353 0.029-0.052 5e-3 -0.135 5e-3 -0.203" fill="#fff"/></g><g transform="translate(66.048 26.124)"><path d="m0 0c0 0.096-0.032 0.208 7e-3 0.284 0.055 0.105 0.162 0.183 0.247 0.272 0.094-0.095 0.238-0.175 0.269-0.287 0.047-0.166 0.046-0.362 4e-3 -0.53-0.03-0.119-0.161-0.214-0.247-0.319-0.094 0.111-0.204 0.213-0.277 0.336-0.036 0.061-6e-3 0.161-6e-3 0.244z" fill="#fff"/></g><g transform="translate(67.189 29.315)"><path d="m0 0c1.592 2e-3 2.908 1.294 2.909 2.856 2e-3 1.635-1.289 2.931-2.919 2.931-1.594-1e-3 -2.906-1.287-2.912-2.856-6e-3 -1.634 1.289-2.933 2.922-2.931m0 6.366c1.919-1e-3 3.47-1.562 3.476-3.498 4e-3 -1.881-1.58-3.447-3.486-3.445-1.951 2e-3 -3.466 1.552-3.458 3.538 8e-3 1.878 1.565 3.406 3.468 3.405" fill="#fff"/></g><g transform="translate(67.233 34.543)"><path d="m0 0c0.973-0.124 1.628-0.524 2.006-1.3 0.06-0.123-0.043-0.325-0.07-0.49-0.138 0.073-0.333 0.111-0.403 0.226-0.343 0.565-0.803 0.91-1.479 0.979-0.137 0.014-0.255 0.208-0.382 0.318 0.131 0.107 0.262 0.213 0.328 0.267" fill="#fff"/></g></g></svg>
