<?xml version="1.0" encoding="UTF-8"?>
<svg width="25.601" height="21.1" version="1.1" viewBox="0 0 25.601 21.1" xml:space="preserve" xmlns="http://www.w3.org/2000/svg"><g transform="matrix(1.3333 0 0 -1.3333 -82.585 53.884)"><g transform="translate(75.235 25.199)"><path d="m0 0c1.396 0 2.792-1e-3 4.187 1e-3 0.692 1e-3 1.087 0.365 1.091 1.045 0.01 1.881 0.01 3.763-1e-3 5.643-4e-3 0.634-0.402 1.021-1.027 1.022-2.837 5e-3 -5.675 5e-3 -8.512 1e-3 -0.654-1e-3 -1.038-0.385-1.041-1.052-8e-3 -1.865-8e-3 -3.731 0-5.598 3e-3 -0.699 0.378-1.059 1.071-1.061 1.41-3e-3 2.821-1e-3 4.232-1e-3m0.017 8.309c1.411 0 2.822 3e-3 4.233-2e-3 1.023-3e-3 1.646-0.62 1.649-1.64 6e-3 -1.882 7e-3 -3.764 0-5.645-4e-3 -0.995-0.637-1.629-1.62-1.63-2.853-5e-3 -5.705-5e-3 -8.558-1e-3 -1.026 2e-3 -1.641 0.622-1.643 1.648-3e-3 1.866-3e-3 3.732 1e-3 5.6 3e-3 1.071 0.591 1.664 1.659 1.668 1.427 6e-3 2.853 2e-3 4.279 2e-3" fill="#fff"/></g><g transform="translate(77.427 33.894)"><path d="m0 0h-0.572c0 0.743-1e-3 1.48 0 2.218 0 0.849 4e-3 1.7 2e-3 2.55-2e-3 0.823-0.309 1.135-1.117 1.135-2.747 2e-3 -5.494 2e-3 -8.241 1e-3 -0.928-1e-3 -1.279-0.363-1.278-1.298 1e-3 -3.87 0-7.739 0-11.608 0-0.197-0.01-0.396 0.011-0.592 0.073-0.66 0.559-1.094 1.22-1.099 0.395-3e-3 0.789-1e-3 1.184-1e-3 0.676 0 0.676 0 1.135-0.592-0.912 0-1.802-0.054-2.682 0.015-0.807 0.064-1.432 0.871-1.435 1.738-0.01 2.184-4e-3 4.37-4e-3 6.555 0 1.912 0.041 3.826-0.015 5.736-0.035 1.219 0.905 1.765 1.8 1.761 2.125-0.011 4.249-3e-3 6.374-3e-3 0.668 0 1.335 5e-3 2.003-2e-3 1.047-0.012 1.61-0.567 1.614-1.601 6e-3 -1.622 1e-3 -3.243 1e-3 -4.913" fill="#fff"/></g><g transform="translate(65.269 36.851)"><path d="m0 0v-0.581c-0.481 0-0.96 2e-3 -1.438 0-0.97-5e-3 -1.27-0.31-1.27-1.279 1e-3 -2.806 1e-3 -5.612 1e-3 -8.417 0-0.944 0.433-1.373 1.389-1.374h1.047c0.643 0 0.643 0 1.079-0.592-0.91 0-1.8-0.055-2.68 0.016-0.779 0.063-1.442 0.868-1.446 1.694-0.017 3.017-0.015 6.035-1e-3 9.053 3e-3 0.759 0.571 1.385 1.361 1.467 0.64 0.066 1.293 0.013 1.958 0.013" fill="#fff"/></g></g></svg>
